<?xml version="1.0" encoding="UTF-8"?>
<svg id="Layer_1" data-name="Layer 1" xmlns="http://www.w3.org/2000/svg" viewBox="0 0 792 412.78">
  <defs>
    <style>
      .cls-1 {
        fill: #85bbc7;
      }

      .cls-1, .cls-2 {
        stroke-width: 0px;
      }

      .cls-2 {
        fill: #fcf0a7;
      }
    </style>
  </defs>
  <path class="cls-2" d="m771.04,176.89c.58-7.99-2.15-16-7.48-21.98l-11.16-12.48c-2.51-2.81-5.43-5.03-8.58-6.66-.81-.42-1-1.49-.43-2.21,7.7-9.72,18.47-27.3,12.71-48.41-3.02-11.09-11.46-25.84-34.47-33.18-.5-.16-1.05-.33-1.67-.5s-1.04-.75-1.04-1.39v-11.72c0-8.13-3.34-16.05-9.18-21.76-5.95-5.79-13.99-8.91-22.15-8.58-46.54,1.24-81.47,22.07-104.12,61.98-.3.53-.91.81-1.51.7-2.56-.47-5.03-.81-7.42-1.01-26.49-2.24-49.49,4.99-65.22,20.06-.5.48-1.27.54-1.83.14l-7.16-5.13c-6.32-4.54-14.33-6.32-22.05-4.85-1.35.26-2.67.62-3.96,1.08-1.01.36-2.04-.46-1.91-1.53l.71-5.88c.97-8.08-1.44-16.32-6.59-22.59-5.18-6.31-12.82-10.27-20.96-10.88-20.09-1.49-40.01,3.5-58.36,14.54-.3.18-.67.25-1.02.18l-11.11-2.26c-4.4-.88-8.84-.75-13.07.31-.37.09-.75.03-1.08-.17-3.22-2.02-6.84-3.41-10.65-4.05-2.55-.42-5.7-.63-11.1-.97-1.85-.12-4.89-.31-5.97-.42-6.5-.96-13.24.24-19.02,3.42l-1.71.94c-.07.04-.14.08-.2.13l-7.79,6.14-1.51,1.29c-8.09,7.5-15.64,16.42-22.27,26.19-.6-.6-1.2-1.19-1.81-1.78-1.35-1.31-9.23-8.03-15.68-13.22-8.38-6.75-16.99-12.89-26.62-17.77-3.05-1.54-6.27-3-9.68-3.1-8.9-.28-13.68,8.73-18.21,14.98-2.61,3.59-5.21,7.18-7.82,10.78-.97,1.34-3.07.26-2.54-1.31l2.9-8.67c3.03-9.04,1.54-19.07-4-26.84-5.54-7.77-14.54-12.45-24.08-12.53-25.65-.21-73.73,4.25-108.03,36.65C28.05,97.61,13.86,142.57,24.13,192.58c10.27,49.97,54.91,90.47,106.15,96.29,6.67.76,13.54,1.14,20.43,1.14,13.97,0,28.09-1.62,41.4-4.69.94-.22,1.79.51,1.74,1.47-.88,16.79,2.35,34.01,9.62,49.69,12,25.89,33.15,44.92,59.56,53.58,10.29,3.38,21.22,5.09,32.47,5.09,13.19,0,26.36-2.33,39.13-6.94,1.54-.55,3.19-1.17,4.92-1.85.58-.23,1.25-.05,1.65.43,3.63,4.37,8.54,7.62,14.15,9.17,24.07,6.65,49.95,3.77,71.59-7.1.52-.26,1.13-.17,1.57.21,2.91,2.54,6.36,4.49,10.15,5.68,8.82,2.75,21.8,6.03,33.61,6.03,15.22,0,29.29-4.11,41.82-12.2,18.73-12.1,30.1-28.64,34.25-50,.2-1.04,1.38-1.52,2.25-.91,11.25,7.96,26.33,14.44,46.06,14.44,12.67,0,26.3-2.77,40.51-8.24.65-.25,1.28-.52,1.77-.73l.44-.19c1.27-.51,2.54-1.05,3.83-1.61,1.15-.5,2.3-1.02,3.4-1.53.71-.33,1.42-.66,2.13-1,.44-.21.94-.19,1.35.06,9.35,5.68,22.02,11.33,37.49,13.43,33.73,4.57,62.66-17.52,70.72-24.39,5.45-4.64,8.85-11.4,9.33-18.53.49-7.14-1.98-14.3-6.74-19.63l-14.83-16.6c-1.92-2.15-4.13-3.95-6.55-5.36-.76-.44-.97-1.42-.43-2.11,7.67-9.81,18.01-27.17,12.34-47.95-.8-2.93-1.99-6.12-3.72-9.36-.36-.67-.15-1.5.49-1.9,4.22-2.63,8.34-5.61,12.33-8.96,6.12-5.13,9.96-12.66,10.53-20.6Zm-483.86,142.11c-5.58-1.83-11.27-7.18-14.48-13.63-3.38-6.76-3.93-14.32-1.55-21.29.88-2.6,5.48-13.39,21.93-18.84.99-.33,1.96.5,1.86,1.54-1.02,10.09-.54,19.87,1.11,28.16,1.59,7.95,4.45,15.42,8.35,22.23.48.84.05,1.92-.89,2.13-5.83,1.3-11.68,1.23-16.31-.29Z"/>
  <g>
    <path class="cls-1" d="m137.03,229.53c-25.45-2.89-49.34-24.4-54.39-48.97-6.14-29.92,1.33-53.62,23.53-74.58,16.58-15.66,42.49-19.45,58.56-20.18,1.99-.09,3.72-1.39,4.35-3.29l8.44-25.19c1.05-3.12-1.26-6.34-4.55-6.37-18.8-.16-61.92,2.71-90.62,29.81-30.91,29.19-42.24,65.12-33.68,106.77,8.02,39.02,44.32,71.89,84.45,76.45,5.79.66,11.69.98,17.6.98,15.24,0,30.56-2.18,44.42-6.3,3.19-.95,4.46-4.78,2.5-7.47l-15.8-21.76c-1.13-1.56-3.08-2.27-4.96-1.87-12.75,2.69-26.8,3.45-39.86,1.97Z"/>
    <g>
      <path class="cls-1" d="m409.34,133.08c-8.26,22.19.62,41.75,13.99,47.83,4.63,2.11,9.89,3.13,16.06,3.13,1.29,0,2.5-.04,3.58-.1,12.9-.69,26.67-3.79,39.85-8.96.43,1.14.81,2.1,1.12,2.85.35.87,1.03,1.55,1.9,1.91.88.36,1.84.36,2.71-.02l17.58-7.52c1.73-.74,2.57-2.76,1.87-4.5h0c-5.17-12.84-11.29-36.93-5.68-46.93.86-1.54.42-3.47-1.03-4.51l-15.58-11.16c-.78-.56-1.76-.78-2.71-.6-.94.18-1.74.72-2.26,1.52-1.08,1.69-2.05,3.54-2.88,5.51-9.98-3.77-24.49-7.39-37.55-3.64-16.73,4.81-26.28,12.58-30.97,25.18Zm23.44,11.6c2.06-5.53,7.02-9.47,14.75-11.69,1.48-.43,3.11-.61,4.82-.61,7.91,0,17.47,3.94,21.92,6,.26,3.6.74,7.39,1.44,11.28-11.17,4.72-23.28,7.63-34.14,8.21-1.3.07-5.23.28-7.43-.72-3.88-1.77-2.6-9.16-1.37-12.47Z"/>
      <path class="cls-1" d="m346.69,343.25c-3.69-1.69-7.36-3.52-10.58-5.97-1.79-1.36-4.19-1.66-6.27-.77-2.78,1.18-6.78,2.71-12.96,4.93-12.61,4.55-26.28,5.04-37.51,1.35-11.97-3.93-22.85-13.74-29.08-26.24-6.39-12.8-7.4-27.19-2.86-40.54,5.87-17.26,24.82-36.5,60.4-38.76,2.01-.13,3.82-1.2,4.85-2.88.99-1.62,1.12-3.55.36-5.28l-5.64-12.92c-1.05-2.4-3.55-3.85-6.23-3.6-40.26,3.73-67.44,23.03-78.58,55.8-6.21,18.24-4.9,39.23,3.61,57.57,9.05,19.52,24.91,33.84,44.65,40.32,7.77,2.55,16.06,3.84,24.66,3.84,10.29,0,20.6-1.83,30.63-5.45,6.36-2.29,12.66-4.95,18.28-8.75,2.8-1.89,5.54-4.08,7.76-6.64,2.1-2.41-.08-3.57-2.33-4.59-1.05-.47-2.1-.95-3.16-1.43Z"/>
      <path class="cls-1" d="m331.78,237.06c-11.98,14.9-14.19,37.91-11.18,52.98,4.38,21.94,23.29,38.51,45.98,40.29,1.3.1,2.6.15,3.89.15,18.26,0,33.44-10.12,39.6-26.42,5.86-15.49,4.33-34.82-4.08-51.7-9.46-18.97-26.18-29.17-47.21-28.79-10.74.21-20.08,4.87-27,13.48Zm50.19,25.23c5.88,9.87,7.33,23.09,3.61,32.92-3.51,9.29-12.11,10.06-16.92,9.68-9.35-.73-19.92-7.12-22.44-19.74-2.33-11.63-1.09-30.84,8.93-35.11.2-.09.4-.17.61-.24,2.25-.81,4.89-1.03,7.84-.63,7.4,1,13.92,5.66,18.36,13.12Z"/>
      <path class="cls-1" d="m373.6,205.34c.68,1.67,2.25,2.82,4.09,3,6.71.66,12.95,1.98,18.56,3.92.54.19,1.09.28,1.64.28,1.41,0,2.77-.6,3.73-1.7,1.31-1.51,1.57-3.65.65-5.43-5.67-11.02-9.94-23.45-12.67-36.93-1.28-6.3-2.26-13.02-2.93-19.96-.72-7.59.84-16.41,4.39-24.83,3.47-8.2,9.49-15.94,16.52-21.25,7.49-5.65,19.4-12.21,33.58-11.35,2.54.17,4.83-1.74,5.14-4.31l1.95-16.18c.16-1.35-.22-2.66-1.08-3.71-.85-1.04-2.12-1.69-3.46-1.79-18.66-1.39-37.25,4.93-54,18.28-.6-1.49-1.91-2.66-3.58-3l-15.96-3.25c-1.3-.26-2.62,0-3.72.74-1.1.74-1.85,1.86-2.1,3.15-2.43,12.62-3.96,25.29-4.53,37.57-.16,2.06-.17,3.76-.17,3.77-.94,29.74,3.89,58.43,13.95,82.98Z"/>
      <path class="cls-1" d="m693.69,301.52c-5.97-.85-11.35-2.91-15.69-5.46-1.95-1.15-2.15-3.91-.38-5.32,17.21-13.74,30.66-27.9,37.49-35.53,6.76-7.56,15.38-18.98,12.13-30.9-3.05-11.17-13.84-14.6-17.9-15.9-9.29-2.95-33.36-7.36-56.08,15.5-15.9,16-23.08,41.6-17.63,61.26.39,1.41-.27,2.91-1.54,3.62-3.59,2-7.14,3.79-10.58,5.33l-.72.32c-1.29.56-2.57,1.1-3.83,1.6-26.22,10.39-38.26,2.4-46.11-6.79-1.5-1.75-.73-4.48,1.47-5.16,18.03-5.62,33.71-15.51,45.69-28.89,6.76-7.56,15.38-18.98,12.13-30.9-3.05-11.17-13.83-14.6-17.9-15.9-9.29-2.95-33.37-7.36-56.08,15.5-9.68,9.74-16.33,23.06-18.59,37.05-.25,1.54-1.5,2.7-3.06,2.78-7.69.37-15.9-.41-19.68-.84-1.31-.15-2.38-1.11-2.72-2.38-.92-3.47-1.44-6.33-1.9-8.78-3.64-19.5-2.17-24.6,2.6-28.52,2.96-2.43,6.19-1.69,8.33-.7,1.49.7,3.26.16,4.15-1.23l10.58-16.5c.98-1.54.53-3.63-1.06-4.52-9.18-5.12-23.33-5.64-38.74,2.91-17.96,9.96-14.92,36.97-12.65,48.62.48,2.44-1.9,4.48-4.25,3.66-12.27-4.3-23.78-10.15-33.22-16.92-.87-.63-1.39-1.65-1.34-2.72.11-2.62.47-5.19,1.06-7.54.3-1.2,1-3.61,2.08-4.9,4.19-5.03,12.33-1.73,17.17.94,1.94,1.07,4.35-.09,4.73-2.27l3.28-18.56c.23-1.3-.34-2.62-1.46-3.31-8.55-5.21-25.12-8.57-38.96,2.85-18.67,15.4-14.58,37.82-11.87,52.67.6,3.28,1.25,6.59,1.92,9.93l.04.21c5.09,25.64,9.9,49.85-9.79,69.59-3.85,3.86-9.6,7.32-14.65,9.11-6.76,2.39-13.65,3.58-21.03,3.42-.75-.02-1.81.39-2.34.93-5.58,5.71-10.57,11.96-16.13,17.68-1.67,1.72-.93,4.62,1.37,5.26,24.68,6.82,53.07.27,71.26-17.96,23.67-23.73,23.89-51.16,20.01-76.24-.4-2.56,2.21-4.5,4.55-3.4,10.76,5.09,22.16,8.96,34.03,11.57,1.22.27,2.2,1.21,2.5,2.42,7.19,29.25,7.76,47.2-8.03,57.41-6.9,4.46-20.14,2.57-25.04,1.67-1.18-.22-2.37.24-3.11,1.18l-13.62,17.29c-1.4,1.78-.6,4.41,1.56,5.08,6.02,1.88,17.09,4.9,26.15,4.9,10.32,0,19.82-2.76,28.23-8.19,15.13-9.78,30.99-26.99,21.96-73.53-.4-2.07,1.23-4,3.33-3.89,5.46.31,10.48-.12,14.17-.44.72-.06,1.4-.12,2.02-.17,1.2,3.04,2.73,5.84,4.55,8.32,6.93,9.48,21.34,29.22,50.14,29.22,9.59,0,20.18-2.21,31.5-6.57.34-.13.67-.27,1-.42l.63-.27c1.12-.45,2.25-.93,3.39-1.43.99-.43,1.97-.87,2.94-1.33.94-.43,1.89-.89,2.84-1.35,1.23-.6,2.46-1.22,3.68-1.85l.32-.17c.4-.2.79-.4,1.13-.6,2-1.07,3.84-2.08,5.55-3.05,1.17-.67,2.62-.53,3.65.35,7.53,6.47,20.71,14.8,37.66,17.1,23.66,3.21,45.64-13.97,51.1-18.64.73-.62.79-1.71.16-2.42l-14.82-16.59c-.77-.86-2.09-.94-2.95-.17-4.25,3.82-16.88,13.83-30.74,11.85Zm-.05-69.43c2.74,0,4.21,3.23,2.4,5.28-.12.14-.25.28-.38.43-9.24,10.33-19.35,20.1-29.66,28.7-2.31,1.93-5.84-.11-5.25-3.07,1.45-7.22,4.94-14.99,11.02-21.12,6.75-6.79,14.1-10.23,21.86-10.23h0Zm-93.09,5.71c-7.28,8.14-16.26,14.43-26.79,18.76-2.79,1.15-5.51-1.82-4.12-4.51,1.88-3.64,4.26-6.95,7.03-9.74,6.75-6.79,14.1-10.23,21.86-10.23h0c2.74,0,4.21,3.23,2.4,5.28-.12.14-.25.28-.38.43Z"/>
      <path class="cls-1" d="m744.87,171.6l-11.14-12.46c-1.69-1.89-4.53-2.12-6.46-.52-9.51,7.88-19.23,11.37-28.89,10.34-6.27-.66-12.56-3.15-18.7-7.38-.27-.18-.33-.44-.33-.62,0-.13.02-.47.34-.72,13.94-10.83,27.81-23.83,40.12-37.58,6.76-7.56,15.38-18.98,12.13-30.9-3.05-11.17-13.83-14.61-17.9-15.9-9.29-2.96-33.37-7.36-56.08,15.5-20.15,20.28-25.59,54.83-11.63,73.93,9.35,12.8,27.21,27.3,49.32,29.64,2,.21,4.03.32,6.02.32,14.77,0,29.56-5.85,42.76-16.93.97-.81,1.55-1.96,1.64-3.22.09-1.27-.34-2.54-1.19-3.48Zm-40.47-71.35c-.91,1.28-2.21,2.93-4.05,4.99-10.55,11.79-22.41,23.03-34.27,32.49-.37.3-.73.19-.91.1-.15-.08-.5-.31-.48-.83.45-10.08,4.86-20.26,11.78-27.24,6.75-6.79,14.1-10.23,21.86-10.23,2.05,0,4.09.24,6.07.73Z"/>
      <path class="cls-1" d="m188.49,109.15c-10.49-5.9-22.31-7.82-34.22-5.56-25.88,4.92-46.33,28.18-47.58,54.11-1,20.85,11.74,38.81,33.24,46.87,7.28,2.73,14.85,4.11,22.53,4.11,16.22,0,31.28-6.3,41.34-17.27,10.8-11.78,15.24-27.02,12.52-42.91-2.82-16.43-13.22-31.14-27.83-39.35Zm-4.45,66.18c-9.04,9.87-24.2,10.23-34.45,6.38-5.29-1.98-17.52-8.19-16.82-22.9.69-14.49,12.65-28.44,26.66-31.1h0c1.51-.29,3-.43,4.48-.43,3.89,0,7.65,1,11.2,3,8.06,4.53,13.83,12.81,15.43,22.15,1.47,8.58-.83,16.72-6.5,22.9Z"/>
      <path class="cls-1" d="m221.66,110.77c6.33,9.26,25.07,43.28.71,92.45-1.15,2.32-.3,5.16,1.95,6.45l14.12,8.15c.75.44,1.61.66,2.47.66.46,0,.92-.06,1.37-.2,1.3-.38,2.36-1.25,2.98-2.46,4.23-8.2,17.83-37.57,15.1-71.13-.06-.7.43-.96.72-1.06.24-.08.87-.19,1.26.46,7.8,13.13,13.24,26.54,14.2,35,.16,1.41.91,2.67,2.07,3.48,1.16.81,2.61,1.07,3.99.73l14.84-3.69c1.98-.49,3.47-2.18,3.7-4.21,1.26-11.25,5.19-28.81,12.46-44.36.33-.71.96-.64,1.21-.59.25.06.83.28.81,1.06-.72,31.01,4.01,58.75,14.09,82.44.55,1.29,1.64,2.29,2.98,2.72,1.34.44,2.81.27,4.01-.46,3.78-2.28,9.6-4.92,14.6-5.49,1.52-.17,2.84-1.01,3.65-2.3.81-1.3.98-2.89.46-4.35-6.84-19.13-10.89-41.78-11.69-65.5-.46-13.45-.2-24.38.82-34.38.41-4,1.07-8.28,2.01-13.07.89-4.5,1.95-9.03,2.87-12.93.25-1.07.05-2.22-.56-3.13-.61-.91-1.58-1.54-2.66-1.72-1.42-.24-4.88-.45-8.55-.69-3.35-.21-6.82-.43-8.03-.63-1.16-.19-2.32.01-3.36.58l-6.26,4.94c-14.65,13.57-27.22,32.85-34.49,52.91-.05.13-.13.2-.26.21-.13.01-.19-.06-.22-.11-6.58-10.45-14.51-20.21-23.59-29.03-.24-.24-26.58-23.15-30.87-23.15-.03,0-.06,0-.09,0l-1.03.15-13.33,18.33c-1.22,1.68-1.25,3.95-.08,5.67l5.63,8.23Z"/>
      <path class="cls-1" d="m543.67,174.53c6.58,2.67,13.84,3.99,20.98,3.81,9.89-.25,20.14-3.24,31.33-9.14.5-.26.95-.15,1.18-.07.23.09.65.32.85.87,2.46,6.86,5.09,12.45,6.86,15.94.65,1.28,1.77,2.22,3.15,2.65.52.16,1.05.24,1.58.24.88,0,1.75-.22,2.54-.66l16.04-8.77c2.5-1.37,3.48-4.53,2.19-7.04-16.37-31.91-9.62-54.47-7.16-60.63,13.58-33.99,33.18-48.88,65.55-49.78,2.83-.08,5.13-2.47,5.13-5.32v-18.27c0-1.43-.59-2.82-1.61-3.81-1.03-1-2.33-1.58-3.79-1.49-44.16,1.11-74.28,23.34-92.11,67.96h0s-.03.07-.04.1c-9.18-3.72-17.21-5.9-23.9-6.46-23.35-1.98-41.7,5.17-51.65,20.16-5.88,8.86-7.3,19.62-4,30.31,3.98,12.85,14.53,24.39,26.9,29.4Zm1.17-43.72c4.12-6.2,13.03-7.57,20.11-7.57,1.84,0,3.55.09,5.03.22,4.57.39,11.66,2.66,19.98,6.39.5.23.83.76.83,1.35,0,2.14.08,4.35.23,6.55.04.56-.21,1.07-.66,1.35-7.52,4.7-17.33,10.13-26.42,10.36h0c-3.14.08-6.42-.5-9.4-1.71-4.29-1.74-8.74-6.63-10.14-11.15-1.07-3.48.04-5.16.46-5.79Z"/>
    </g>
  </g>
</svg>