<?xml version="1.0" encoding="UTF-8"?>
<svg id="Layer_1" data-name="Layer 1" xmlns="http://www.w3.org/2000/svg" viewBox="0 0 612 612">
  <defs>
    <style>
      .cls-1 {
        fill: #5c5aa7;
      }

      .cls-1, .cls-2, .cls-3 {
        stroke-width: 0px;
      }

      .cls-2 {
        fill: #8dd2ce;
      }

      .cls-3 {
        fill: #e3e43e;
      }
    </style>
  </defs>
  <rect class="cls-2" width="612" height="612" rx="139.07" ry="139.07"/>
  <g>
    <path class="cls-1" d="m604.84,284.09c.46-6.37-1.71-12.75-5.96-17.51l-8.89-9.95c-2-2.24-4.33-4.01-6.84-5.31-.65-.33-.79-1.19-.34-1.76,6.13-7.74,14.72-21.75,10.13-38.58-2.41-8.84-9.13-20.59-27.47-26.44-.39-.13-.84-.26-1.33-.4s-.83-.59-.83-1.11v-9.34c0-6.48-2.66-12.79-7.32-17.34-4.74-4.61-11.15-7.1-17.65-6.84-37.09.99-64.92,17.58-82.96,49.39-.24.42-.72.64-1.2.56-2.04-.37-4.01-.64-5.92-.8-21.11-1.79-39.44,3.98-51.97,15.99-.4.38-1.01.43-1.46.11l-5.71-4.09c-5.04-3.62-11.42-5.03-17.57-3.87-1.08.21-2.13.5-3.16.86-.8.28-1.62-.37-1.52-1.22l.57-4.68c.77-6.44-1.14-13-5.25-18-4.13-5.03-10.22-8.19-16.7-8.67-16.01-1.19-31.88,2.79-46.5,11.58-.24.15-.53.2-.81.14l-8.85-1.8c-3.51-.7-7.05-.59-10.42.24-.29.07-.6.02-.86-.14-2.57-1.61-5.45-2.72-8.49-3.22-2.03-.34-4.54-.51-8.85-.78-1.48-.09-3.9-.25-4.76-.33-5.18-.76-10.55.19-15.15,2.73l-1.36.75c-.06.03-.11.07-.16.11l-6.21,4.9-1.2,1.03c-6.45,5.97-12.47,13.09-17.74,20.87-.48-.48-.96-.95-1.44-1.42-1.07-1.04-7.35-6.4-12.49-10.53-6.68-5.38-13.54-10.27-21.21-14.16-2.43-1.23-4.99-2.39-7.72-2.47-7.09-.22-10.9,6.96-14.51,11.94-2.08,2.86-4.15,5.72-6.23,8.59-.77,1.07-2.44.21-2.02-1.04l2.31-6.91c2.42-7.2,1.23-15.2-3.18-21.39-4.41-6.19-11.59-9.92-19.19-9.99-20.44-.17-58.75,3.39-86.08,29.2-29.57,27.93-40.87,63.75-32.69,103.6,8.18,39.82,43.75,72.09,84.59,76.73,5.31.6,10.79.91,16.28.91,11.14,0,22.38-1.29,32.99-3.74.75-.17,1.43.41,1.39,1.17-.7,13.38,1.88,27.1,7.67,39.59,9.56,20.63,26.42,35.79,47.46,42.7,8.2,2.69,16.91,4.06,25.87,4.06,10.51,0,21-1.86,31.18-5.53,1.22-.44,2.54-.93,3.92-1.48.47-.18.99-.04,1.31.34,2.89,3.48,6.81,6.07,11.27,7.31,19.18,5.3,39.8,3.01,57.04-5.66.42-.21.9-.14,1.25.17,2.32,2.02,5.06,3.58,8.09,4.52,7.02,2.19,17.37,4.81,26.78,4.81,12.13,0,23.34-3.27,33.32-9.72,14.92-9.64,23.98-22.82,27.29-39.84.16-.83,1.1-1.21,1.79-.73,8.96,6.34,20.98,11.51,36.71,11.51,10.1,0,20.96-2.21,32.28-6.57.52-.2,1.02-.41,1.41-.58l.35-.15c1.01-.41,2.03-.84,3.05-1.29.92-.4,1.83-.82,2.71-1.22.56-.26,1.13-.53,1.69-.8.35-.17.75-.15,1.08.05,7.45,4.53,17.55,9.03,29.87,10.7,26.88,3.64,49.93-13.96,56.35-19.44,4.34-3.7,7.05-9.08,7.43-14.77.39-5.69-1.57-11.39-5.37-15.64l-11.82-13.23c-1.53-1.71-3.29-3.14-5.22-4.27-.6-.35-.78-1.13-.35-1.68,6.11-7.81,14.35-21.65,9.84-38.21-.64-2.34-1.59-4.88-2.96-7.46-.29-.54-.12-1.2.39-1.52,3.37-2.09,6.65-4.47,9.83-7.14,4.88-4.09,7.94-10.08,8.39-16.41Zm-385.55,113.24c-4.45-1.46-8.98-5.72-11.54-10.86-2.69-5.39-3.13-11.41-1.24-16.97.7-2.07,4.37-10.67,17.47-15.01.79-.26,1.56.4,1.48,1.23-.81,8.04-.43,15.83.89,22.44,1.27,6.34,3.55,12.29,6.65,17.71.38.67.04,1.53-.71,1.69-4.65,1.04-9.31.98-13-.23Z"/>
    <g>
      <path class="cls-3" d="m99.64,326.03c-20.28-2.3-39.32-19.45-43.34-39.02-4.9-23.84,1.06-42.73,18.75-59.43,13.21-12.48,33.86-15.49,46.67-16.08,1.59-.07,2.96-1.11,3.47-2.62l6.73-20.07c.83-2.49-1-5.05-3.62-5.07-14.98-.13-49.34,2.16-72.21,23.76-24.63,23.26-33.66,51.89-26.84,85.08,6.39,31.09,35.32,57.28,67.29,60.92,4.62.52,9.32.78,14.03.78,12.15,0,24.35-1.73,35.4-5.02,2.54-.75,3.55-3.81,2-5.96l-12.59-17.34c-.9-1.24-2.45-1.81-3.95-1.49-10.16,2.15-21.36,2.75-31.76,1.57Z"/>
      <g>
        <path class="cls-3" d="m316.63,249.18c-6.59,17.68.5,33.27,11.15,38.11,3.69,1.68,7.88,2.5,12.8,2.5,1.03,0,1.99-.04,2.85-.08,10.28-.55,21.25-3.02,31.75-7.14.34.91.65,1.67.89,2.27.28.7.82,1.24,1.51,1.52.7.29,1.46.28,2.16-.01l14.01-5.99c1.38-.59,2.05-2.2,1.49-3.59h0c-4.12-10.23-9-29.43-4.53-37.39.69-1.22.34-2.77-.82-3.59l-12.42-8.89c-.62-.45-1.41-.62-2.16-.48-.75.14-1.39.57-1.8,1.21-.86,1.35-1.63,2.82-2.3,4.39-7.95-3-19.51-5.89-29.92-2.9-13.33,3.84-20.94,10.02-24.68,20.07Zm18.68,9.25c1.64-4.41,5.6-7.55,11.75-9.32,1.18-.34,2.48-.48,3.84-.48,6.3,0,13.92,3.14,17.47,4.78.2,2.87.59,5.89,1.15,8.99-8.9,3.76-18.55,6.08-27.2,6.54-1.03.05-4.17.22-5.92-.58-3.09-1.41-2.07-7.3-1.09-9.93Z"/>
        <path class="cls-3" d="m266.71,416.65c-2.94-1.35-5.86-2.81-8.43-4.76-1.43-1.08-3.34-1.32-4.99-.61-2.22.94-5.4,2.16-10.33,3.93-10.05,3.62-20.94,4.02-29.89,1.08-9.54-3.13-18.21-10.95-23.17-20.91-5.09-10.2-5.9-21.67-2.28-32.31,4.68-13.75,19.78-29.09,48.13-30.88,1.6-.1,3.05-.96,3.86-2.3.79-1.29.89-2.83.29-4.21l-4.5-10.3c-.84-1.91-2.83-3.07-4.96-2.87-32.08,2.98-53.73,18.35-62.62,44.46-4.95,14.54-3.9,31.26,2.88,45.87,7.21,15.56,19.85,26.97,35.58,32.13,6.19,2.03,12.8,3.06,19.65,3.06,8.2,0,16.41-1.46,24.41-4.35,5.07-1.83,10.09-3.94,14.57-6.97,2.23-1.51,4.41-3.25,6.19-5.29,1.67-1.92-.06-2.84-1.86-3.65-.84-.38-1.68-.75-2.52-1.14Z"/>
        <path class="cls-3" d="m254.83,332.03c-9.54,11.87-11.31,30.21-8.91,42.22,3.49,17.48,18.56,30.69,36.64,32.1,1.03.08,2.07.12,3.1.12,14.55,0,26.65-8.07,31.56-21.05,4.67-12.34,3.45-27.74-3.25-41.19-7.54-15.12-20.86-23.25-37.62-22.94-8.56.17-16,3.88-21.51,10.74Zm39.99,20.1c4.68,7.86,5.84,18.4,2.88,26.23-2.8,7.4-9.65,8.01-13.48,7.71-7.45-.58-15.87-5.67-17.88-15.73-1.85-9.27-.87-24.57,7.12-27.98.16-.07.32-.13.49-.19,1.8-.65,3.9-.82,6.25-.5,5.89.8,11.09,4.51,14.63,10.46Z"/>
        <path class="cls-3" d="m288.15,306.76c.55,1.33,1.79,2.25,3.26,2.39,5.34.53,10.32,1.58,14.79,3.12.43.15.87.22,1.31.22,1.12,0,2.21-.48,2.97-1.36,1.04-1.21,1.25-2.9.52-4.33-4.52-8.78-7.92-18.68-10.1-29.43-1.02-5.02-1.8-10.37-2.33-15.91-.58-6.05.67-13.08,3.5-19.78,2.76-6.53,7.56-12.7,13.16-16.93,5.97-4.5,15.46-9.73,26.76-9.04,2.03.13,3.85-1.38,4.1-3.43l1.56-12.89c.13-1.07-.18-2.12-.86-2.96-.68-.83-1.69-1.35-2.76-1.43-14.87-1.11-29.68,3.93-43.03,14.57-.48-1.18-1.52-2.12-2.85-2.39l-12.72-2.59c-1.03-.21-2.09,0-2.97.59-.88.59-1.47,1.48-1.67,2.51-1.94,10.06-3.15,20.15-3.61,29.94-.13,1.64-.13,3-.13,3.01-.75,23.69,3.1,46.56,11.12,66.12Z"/>
        <path class="cls-3" d="m543.21,383.4c-4.76-.68-9.05-2.32-12.5-4.35-1.56-.92-1.72-3.11-.31-4.24,13.71-10.95,24.43-22.23,29.88-28.31,5.39-6.02,12.25-15.13,9.66-24.62-2.43-8.9-11.02-11.64-14.26-12.67-7.4-2.35-26.59-5.87-44.69,12.35-12.67,12.75-18.39,33.15-14.04,48.81.31,1.12-.21,2.32-1.23,2.89-2.86,1.59-5.69,3.02-8.43,4.25l-.58.25c-1.03.45-2.04.88-3.05,1.28-20.9,8.28-30.49,1.91-36.74-5.41-1.19-1.4-.58-3.57,1.17-4.12,14.37-4.48,26.86-12.36,36.4-23.02,5.39-6.02,12.26-15.13,9.66-24.62-2.43-8.9-11.02-11.64-14.26-12.67-7.41-2.35-26.59-5.86-44.69,12.35-7.71,7.76-13.01,18.37-14.82,29.52-.2,1.22-1.2,2.15-2.44,2.21-6.13.29-12.67-.33-15.68-.67-1.05-.12-1.9-.88-2.17-1.9-.73-2.77-1.15-5.04-1.51-7-2.9-15.54-1.73-19.6,2.07-22.72,2.36-1.94,4.94-1.35,6.64-.56,1.19.55,2.6.12,3.3-.98l8.43-13.15c.78-1.22.43-2.89-.84-3.6-7.31-4.08-18.59-4.49-30.87,2.32-14.31,7.94-11.89,29.46-10.08,38.74.38,1.95-1.52,3.57-3.39,2.92-9.78-3.43-18.95-8.09-26.47-13.49-.7-.5-1.1-1.32-1.07-2.17.09-2.09.38-4.13.84-6.01.24-.95.8-2.88,1.65-3.91,3.34-4.01,9.82-1.38,13.68.75,1.55.85,3.46-.07,3.77-1.81l2.61-14.79c.18-1.03-.27-2.09-1.16-2.63-6.81-4.15-20.01-6.83-31.04,2.27-14.88,12.27-11.62,30.14-9.46,41.97.48,2.61,1,5.25,1.53,7.91l.03.16c4.06,20.43,7.89,39.73-7.8,55.46-3.07,3.08-7.65,5.83-11.67,7.26-5.39,1.91-10.87,2.86-16.76,2.73-.6-.01-1.44.31-1.86.74-4.45,4.55-8.42,9.53-12.86,14.09-1.33,1.37-.74,3.68,1.1,4.19,19.67,5.44,42.28.22,56.78-14.31,18.86-18.91,19.04-40.77,15.94-60.75-.32-2.04,1.76-3.59,3.62-2.71,8.57,4.05,17.66,7.14,27.12,9.22.97.21,1.75.96,1.99,1.93,5.73,23.31,6.19,37.61-6.4,45.74-5.5,3.55-16.05,2.05-19.95,1.33-.94-.17-1.89.19-2.48.94l-10.85,13.78c-1.12,1.42-.48,3.51,1.25,4.05,4.8,1.5,13.62,3.9,20.83,3.9,8.23,0,15.79-2.2,22.49-6.53,12.06-7.79,24.69-21.5,17.5-58.59-.32-1.65.98-3.19,2.65-3.1,4.35.25,8.35-.1,11.29-.35.58-.05,1.12-.1,1.61-.13.96,2.42,2.17,4.65,3.62,6.63,5.52,7.56,17.01,23.28,39.95,23.28,7.64,0,16.08-1.76,25.1-5.23.27-.1.53-.22.8-.33l.51-.21c.89-.36,1.79-.74,2.7-1.14.79-.34,1.57-.7,2.34-1.06.75-.34,1.5-.71,2.26-1.08.98-.48,1.96-.97,2.93-1.47l.26-.13c.31-.16.63-.32.9-.48,1.6-.85,3.06-1.66,4.42-2.43.93-.53,2.09-.42,2.91.28,6,5.16,16.5,11.79,30.01,13.63,18.85,2.56,36.37-11.14,40.72-14.85.58-.49.63-1.36.12-1.93l-11.81-13.22c-.61-.69-1.67-.75-2.35-.14-3.39,3.05-13.45,11.02-24.49,9.44Zm-.04-55.33c2.18,0,3.36,2.57,1.91,4.21-.1.11-.2.23-.3.34-7.36,8.23-15.42,16.02-23.63,22.87-1.84,1.54-4.65-.09-4.18-2.44,1.15-5.76,3.93-11.94,8.78-16.83,5.38-5.41,11.24-8.15,17.42-8.15h0Zm-74.18,4.55c-5.8,6.49-12.96,11.5-21.34,14.95-2.23.92-4.39-1.45-3.29-3.59,1.5-2.9,3.4-5.54,5.6-7.76,5.38-5.41,11.24-8.15,17.42-8.15h0c2.18,0,3.36,2.57,1.91,4.21-.1.11-.2.23-.3.34Z"/>
        <path class="cls-3" d="m583.99,279.87l-8.88-9.93c-1.35-1.51-3.61-1.69-5.15-.42-7.58,6.28-15.33,9.06-23.02,8.24-5-.53-10.01-2.51-14.9-5.88-.21-.15-.26-.35-.27-.5,0-.11.02-.38.27-.57,11.11-8.63,22.16-18.99,31.97-29.95,5.39-6.02,12.25-15.13,9.66-24.62-2.43-8.9-11.02-11.64-14.26-12.67-7.41-2.36-26.59-5.87-44.69,12.35-16.06,16.16-20.39,43.69-9.27,58.91,7.45,10.2,21.68,21.75,39.3,23.62,1.59.17,3.21.25,4.8.25,11.77,0,23.56-4.66,34.07-13.49.77-.65,1.24-1.56,1.31-2.57.07-1.01-.27-2.02-.95-2.78Zm-32.25-56.86c-.73,1.02-1.76,2.34-3.23,3.97-8.41,9.4-17.85,18.35-27.31,25.89-.3.24-.58.15-.73.08-.12-.06-.4-.25-.38-.66.36-8.03,3.87-16.15,9.39-21.7,5.38-5.41,11.24-8.15,17.42-8.15,1.64,0,3.26.19,4.84.58Z"/>
        <path class="cls-3" d="m140.65,230.11c-8.36-4.7-17.78-6.23-27.27-4.43-20.62,3.92-36.92,22.46-37.91,43.12-.8,16.61,9.35,30.92,26.49,37.35,5.8,2.17,11.84,3.27,17.95,3.27,12.92,0,24.93-5.02,32.94-13.76,8.6-9.39,12.14-21.53,9.97-34.19-2.25-13.09-10.54-24.81-22.17-31.36Zm-3.55,52.73c-7.21,7.86-19.28,8.15-27.45,5.09-4.22-1.58-13.96-6.53-13.4-18.25.55-11.54,10.08-22.66,21.24-24.78h0c1.2-.23,2.39-.34,3.57-.34,3.1,0,6.09.8,8.93,2.39,6.42,3.61,11.02,10.21,12.29,17.65,1.18,6.84-.66,13.32-5.18,18.25Z"/>
        <path class="cls-3" d="m167.08,231.4c5.04,7.38,19.98,34.49.57,73.67-.92,1.85-.24,4.11,1.55,5.14l11.25,6.5c.6.35,1.28.53,1.97.53.37,0,.74-.05,1.09-.16,1.04-.3,1.88-1,2.38-1.96,3.37-6.54,14.21-29.94,12.03-56.68-.05-.56.34-.77.58-.84.19-.06.69-.16,1,.37,6.21,10.46,10.55,21.15,11.32,27.89.13,1.12.73,2.13,1.65,2.77.93.64,2.08.85,3.18.58l11.82-2.94c1.58-.39,2.76-1.74,2.95-3.36,1-8.96,4.14-22.95,9.93-35.35.26-.56.76-.51.96-.47.2.05.66.22.65.84-.58,24.71,3.2,46.81,11.22,65.69.44,1.03,1.3,1.82,2.38,2.17,1.07.35,2.24.21,3.2-.37,3.01-1.82,7.65-3.92,11.63-4.37,1.21-.14,2.27-.81,2.91-1.83.65-1.04.78-2.3.37-3.47-5.45-15.25-8.67-33.29-9.32-52.19-.36-10.72-.16-19.42.66-27.4.33-3.19.85-6.6,1.6-10.42.71-3.59,1.55-7.2,2.29-10.3.2-.86.04-1.77-.45-2.49-.48-.73-1.26-1.23-2.12-1.37-1.13-.19-3.89-.36-6.81-.55-2.67-.17-5.43-.34-6.4-.5-.92-.15-1.85,0-2.67.46l-4.99,3.93c-11.67,10.81-21.69,26.18-27.48,42.16-.04.1-.11.16-.21.17-.1,0-.15-.05-.17-.09-5.24-8.32-11.56-16.11-18.8-23.13-.19-.19-21.18-18.45-24.6-18.45-.03,0-.05,0-.07,0l-.82.12-10.62,14.6c-.97,1.34-1,3.15-.07,4.51l4.48,6.56Z"/>
        <path class="cls-3" d="m423.67,282.21c5.25,2.12,11.03,3.18,16.72,3.04,7.88-.2,16.05-2.58,24.96-7.28.4-.21.76-.12.94-.05.19.07.52.26.68.7,1.96,5.47,4.06,9.92,5.47,12.7.52,1.02,1.41,1.77,2.51,2.11.41.13.84.19,1.26.19.7,0,1.39-.18,2.03-.52l12.78-6.99c1.99-1.09,2.77-3.61,1.74-5.61-13.05-25.43-7.67-43.41-5.71-48.31,10.82-27.08,26.44-38.95,52.23-39.67,2.25-.06,4.09-1.96,4.09-4.24v-14.56c0-1.14-.47-2.24-1.28-3.04-.82-.8-1.86-1.26-3.02-1.19-35.18.88-59.19,18.6-73.39,54.15h0s-.02.06-.03.08c-7.31-2.97-13.71-4.7-19.05-5.15-18.61-1.58-33.23,4.12-41.16,16.07-4.69,7.06-5.82,15.64-3.18,24.16,3.17,10.24,11.58,19.43,21.43,23.42Zm.93-34.84c3.28-4.94,10.38-6.03,16.02-6.03,1.46,0,2.83.07,4,.17,3.64.31,9.29,2.12,15.92,5.09.4.18.66.6.66,1.08,0,1.71.06,3.46.18,5.22.03.44-.17.86-.53,1.08-6,3.75-13.81,8.07-21.05,8.25h0c-2.5.07-5.12-.4-7.49-1.36-3.42-1.38-6.96-5.29-8.08-8.88-.86-2.77.03-4.11.37-4.61Z"/>
      </g>
    </g>
  </g>
</svg>