<?xml version="1.0" encoding="UTF-8"?>
<svg id="Layer_1" data-name="Layer 1" xmlns="http://www.w3.org/2000/svg" viewBox="0 0 612 612">
  <defs>
    <style>
      .cls-1 {
        fill: #f8eda3;
      }

      .cls-1, .cls-2, .cls-3 {
        stroke-width: 0px;
      }

      .cls-2 {
        fill: #7ab7c2;
      }

      .cls-3 {
        fill: #64cadc;
      }
    </style>
  </defs>
  <rect class="cls-3" width="612" height="612" rx="179.73" ry="179.73"/>
  <g>
    <path class="cls-1" d="m585.14,285.53c.43-5.95-1.6-11.91-5.57-16.36l-8.3-9.29c-1.87-2.09-4.04-3.75-6.39-4.96-.6-.31-.74-1.11-.32-1.64,5.73-7.24,13.75-20.32,9.46-36.05-2.25-8.26-8.53-19.24-25.66-24.7-.37-.12-.79-.24-1.24-.37s-.78-.56-.78-1.03v-8.73c0-6.05-2.49-11.95-6.84-16.2-4.43-4.31-10.41-6.64-16.49-6.39-34.64.92-60.64,16.43-77.49,46.15-.22.39-.68.6-1.12.52-1.9-.35-3.75-.6-5.53-.75-19.72-1.67-36.84,3.72-48.54,14.94-.37.36-.94.4-1.36.1l-5.33-3.82c-4.7-3.38-10.67-4.7-16.41-3.61-1.01.19-1.99.46-2.95.8-.75.26-1.52-.35-1.42-1.14l.53-4.37c.72-6.02-1.07-12.15-4.91-16.82-3.86-4.7-9.54-7.65-15.6-8.1-14.95-1.11-29.78,2.61-43.44,10.82-.23.14-.5.18-.76.13l-8.27-1.69c-3.28-.66-6.58-.55-9.73.23-.28.07-.56.02-.8-.13-2.4-1.5-5.09-2.54-7.93-3.01-1.9-.31-4.24-.47-8.26-.73-1.38-.09-3.64-.23-4.44-.31-4.84-.71-9.85.18-14.15,2.55l-1.27.7c-.05.03-.1.06-.15.1l-5.8,4.57-1.12.96c-6.02,5.58-11.64,12.23-16.57,19.5-.45-.44-.89-.89-1.34-1.32-1-.97-6.87-5.98-11.67-9.84-6.24-5.02-12.65-9.6-19.81-13.23-2.27-1.15-4.66-2.23-7.21-2.31-6.63-.2-10.18,6.5-13.55,11.15-1.94,2.67-3.88,5.35-5.82,8.02-.72,1-2.28.19-1.89-.97l2.16-6.45c2.26-6.73,1.15-14.2-2.97-19.98-4.12-5.78-10.82-9.27-17.92-9.33-19.09-.16-54.87,3.17-80.41,27.29-27.62,26.1-38.18,59.57-30.53,96.81,7.64,37.21,40.87,67.36,79.01,71.7,4.96.56,10.08.85,15.21.85,10.4,0,20.91-1.21,30.82-3.49.7-.16,1.33.38,1.3,1.09-.66,12.5,1.75,25.32,7.16,36.99,8.93,19.27,24.68,33.44,44.33,39.89,7.66,2.52,15.79,3.79,24.17,3.79,9.82,0,19.62-1.74,29.12-5.17,1.14-.41,2.37-.87,3.66-1.38.43-.17.93-.04,1.23.32,2.7,3.25,6.36,5.68,10.53,6.83,17.92,4.95,37.18,2.81,53.28-5.28.39-.2.84-.13,1.17.16,2.17,1.89,4.73,3.34,7.56,4.23,6.56,2.05,16.23,4.49,25.02,4.49,11.33,0,21.8-3.06,31.13-9.09,13.94-9.01,22.4-21.32,25.49-37.23.15-.78,1.03-1.13,1.67-.68,8.37,5.93,19.6,10.75,34.29,10.75,9.43,0,19.58-2.06,30.15-6.14.48-.18.96-.39,1.32-.54l.33-.14c.94-.38,1.89-.78,2.85-1.2.86-.38,1.71-.76,2.53-1.14.53-.24,1.06-.49,1.58-.75.32-.16.7-.14,1.01.05,6.96,4.23,16.39,8.44,27.9,10,25.11,3.4,46.64-13.04,52.64-18.16,4.05-3.46,6.58-8.48,6.94-13.8.36-5.32-1.47-10.65-5.02-14.62l-11.04-12.36c-1.43-1.6-3.07-2.94-4.87-3.99-.56-.33-.72-1.06-.32-1.57,5.71-7.3,13.41-20.23,9.19-35.7-.59-2.18-1.48-4.56-2.77-6.97-.27-.5-.11-1.12.37-1.42,3.14-1.96,6.21-4.18,9.18-6.67,4.56-3.82,7.41-9.42,7.84-15.34Zm-360.14,105.81c-4.16-1.36-8.39-5.35-10.78-10.15-2.51-5.04-2.92-10.67-1.16-15.86.66-1.94,4.08-9.97,16.32-14.03.73-.24,1.46.38,1.38,1.15-.76,7.52-.4,14.79.83,20.97,1.18,5.92,3.31,11.48,6.21,16.55.36.62.04,1.43-.67,1.58-4.34.97-8.69.91-12.14-.22Z"/>
    <g>
      <path class="cls-2" d="m113.25,324.72c-18.94-2.15-36.73-18.17-40.49-36.46-4.57-22.28.99-39.92,17.51-55.53,12.34-11.66,31.63-14.48,43.59-15.03,1.48-.07,2.77-1.04,3.24-2.45l6.28-18.75c.78-2.32-.94-4.72-3.38-4.74-13.99-.12-46.09,2.02-67.45,22.2-23.01,21.74-31.44,48.48-25.07,79.5,5.97,29.06,32.99,53.53,62.85,56.92,4.31.49,8.7.73,13.1.73,11.35,0,22.75-1.62,33.07-4.69,2.37-.71,3.32-3.56,1.86-5.57l-11.76-16.2c-.84-1.16-2.29-1.69-3.69-1.39-9.49,2.01-19.95,2.57-29.67,1.46Z"/>
      <g>
        <path class="cls-2" d="m315.94,252.91c-6.15,16.52.46,31.08,10.42,35.61,3.45,1.57,7.36,2.33,11.96,2.33.96,0,1.86-.03,2.66-.08,9.6-.51,19.85-2.82,29.66-6.67.32.85.6,1.56.83,2.12.26.65.77,1.16,1.41,1.42.65.27,1.37.26,2.02-.01l13.09-5.6c1.29-.55,1.91-2.06,1.39-3.35h0c-3.85-9.56-8.4-27.5-4.23-34.94.64-1.14.31-2.59-.76-3.36l-11.6-8.31c-.58-.42-1.31-.58-2.02-.44-.7.13-1.3.54-1.68,1.13-.8,1.26-1.52,2.64-2.15,4.1-7.43-2.81-18.23-5.5-27.95-2.71-12.45,3.58-19.56,9.37-23.05,18.75Zm17.45,8.64c1.53-4.12,5.23-7.05,10.98-8.71,1.1-.32,2.32-.45,3.59-.45,5.89,0,13,2.93,16.32,4.47.19,2.68.55,5.5,1.08,8.4-8.31,3.51-17.33,5.68-25.41,6.11-.96.05-3.89.21-5.53-.54-2.89-1.32-1.93-6.82-1.02-9.28Z"/>
        <path class="cls-2" d="m269.31,409.39c-2.75-1.26-5.48-2.62-7.88-4.45-1.33-1.01-3.12-1.23-4.66-.57-2.07.88-5.05,2.01-9.65,3.67-9.39,3.39-19.56,3.75-27.92,1.01-8.91-2.93-17.01-10.23-21.65-19.54-4.75-9.53-5.51-20.25-2.13-30.19,4.37-12.85,18.48-27.18,44.96-28.86,1.5-.1,2.85-.9,3.61-2.15.74-1.21.84-2.64.27-3.93l-4.2-9.62c-.78-1.79-2.64-2.87-4.63-2.68-29.97,2.78-50.19,17.15-58.49,41.55-4.62,13.58-3.64,29.21,2.69,42.87,6.74,14.54,18.54,25.2,33.23,30.02,5.78,1.9,11.96,2.86,18.35,2.86,7.66,0,15.33-1.37,22.8-4.06,4.73-1.71,9.42-3.68,13.61-6.51,2.09-1.41,4.12-3.04,5.78-4.95,1.56-1.8-.06-2.66-1.74-3.41-.78-.35-1.57-.7-2.35-1.07Z"/>
        <path class="cls-2" d="m258.21,330.32c-8.92,11.1-10.57,28.23-8.32,39.45,3.26,16.34,17.34,28.67,34.22,30,.96.08,1.94.11,2.9.11,13.59,0,24.89-7.54,29.48-19.67,4.36-11.53,3.23-25.92-3.04-38.49-7.04-14.12-19.49-21.72-35.14-21.43-8,.16-14.94,3.63-20.09,10.04Zm37.36,18.78c4.37,7.35,5.45,17.19,2.69,24.51-2.62,6.92-9.01,7.49-12.59,7.21-6.96-.55-14.83-5.3-16.7-14.7-1.73-8.66-.81-22.96,6.65-26.14.15-.06.3-.12.45-.18,1.68-.61,3.64-.76,5.84-.47,5.5.75,10.36,4.21,13.67,9.77Z"/>
        <path class="cls-2" d="m289.34,306.71c.51,1.24,1.67,2.1,3.04,2.24,4.99.49,9.64,1.48,13.81,2.92.4.14.81.21,1.22.21,1.05,0,2.06-.45,2.77-1.27.98-1.13,1.17-2.71.48-4.05-4.22-8.21-7.39-17.46-9.43-27.5-.95-4.69-1.68-9.69-2.18-14.87-.54-5.65.62-12.22,3.27-18.48,2.58-6.1,7.06-11.87,12.3-15.82,5.58-4.21,14.44-9.09,25-8.45,1.89.12,3.59-1.29,3.83-3.21l1.45-12.05c.12-1-.17-1.98-.81-2.76-.64-.77-1.58-1.26-2.58-1.34-13.89-1.03-27.73,3.67-40.19,13.61-.45-1.11-1.42-1.98-2.66-2.23l-11.88-2.42c-.97-.19-1.95,0-2.77.55s-1.38,1.38-1.56,2.35c-1.81,9.4-2.95,18.83-3.37,27.98-.12,1.53-.12,2.8-.12,2.81-.7,22.14,2.89,43.5,10.39,61.78Z"/>
        <path class="cls-2" d="m527.58,378.32c-4.44-.63-8.45-2.17-11.67-4.06-1.45-.86-1.6-2.91-.29-3.96,12.81-10.23,22.82-20.77,27.91-26.45,5.03-5.63,11.45-14.14,9.03-23.01-2.27-8.32-10.3-10.87-13.32-11.84-6.92-2.2-24.83-5.48-41.74,11.54-11.83,11.92-17.17,30.97-13.12,45.61.29,1.05-.2,2.17-1.15,2.7-2.67,1.49-5.31,2.82-7.87,3.97l-.54.24c-.96.42-1.91.82-2.85,1.19-19.52,7.74-28.48,1.78-34.32-5.05-1.12-1.31-.54-3.33,1.1-3.85,13.42-4.18,25.09-11.55,34-21.51,5.03-5.63,11.45-14.13,9.03-23.01-2.27-8.32-10.3-10.87-13.32-11.84-6.92-2.2-24.84-5.48-41.74,11.54-7.21,7.25-12.15,17.17-13.84,27.59-.19,1.14-1.12,2.01-2.28,2.07-5.73.27-11.83-.31-14.65-.63-.98-.11-1.77-.82-2.02-1.77-.68-2.58-1.08-4.71-1.41-6.54-2.71-14.52-1.62-18.31,1.93-21.23,2.2-1.81,4.61-1.26,6.2-.52,1.11.52,2.43.12,3.09-.91l7.88-12.29c.73-1.14.4-2.7-.79-3.37-6.83-3.81-17.36-4.2-28.84,2.17-13.37,7.42-11.11,27.53-9.41,36.2.35,1.82-1.42,3.34-3.16,2.72-9.13-3.2-17.7-7.56-24.73-12.6-.65-.47-1.03-1.23-1-2.03.08-1.95.35-3.86.79-5.61.22-.89.74-2.69,1.54-3.65,3.12-3.74,9.18-1.29,12.78.7,1.44.8,3.24-.07,3.52-1.69l2.44-13.82c.17-.97-.25-1.95-1.09-2.46-6.36-3.88-18.69-6.38-29,2.12-13.9,11.46-10.85,28.16-8.83,39.21.45,2.44.93,4.91,1.43,7.39l.03.15c3.79,19.09,7.37,37.12-7.29,51.82-2.87,2.88-7.14,5.45-10.9,6.78-5.03,1.78-10.16,2.67-15.65,2.55-.56-.01-1.35.29-1.74.69-4.15,4.25-7.87,8.91-12.01,13.17-1.24,1.28-.69,3.44,1.02,3.92,18.37,5.08,39.5.2,53.04-13.37,17.61-17.67,17.78-38.09,14.89-56.77-.29-1.9,1.64-3.35,3.38-2.53,8.01,3.79,16.49,6.67,25.33,8.62.91.2,1.64.9,1.86,1.8,5.35,21.78,5.78,35.14-5.98,42.74-5.13,3.32-14.99,1.92-18.64,1.24-.88-.16-1.76.18-2.32.88l-10.13,12.87c-1.04,1.33-.45,3.28,1.16,3.79,4.48,1.4,12.72,3.64,19.46,3.64,7.68,0,14.75-2.05,21.01-6.1,11.26-7.28,23.07-20.09,16.35-54.74-.3-1.54.92-2.98,2.48-2.89,4.07.23,7.8-.09,10.54-.33.54-.05,1.04-.09,1.5-.12.9,2.27,2.03,4.35,3.38,6.2,5.16,7.06,15.89,21.75,37.32,21.75,7.14,0,15.02-1.64,23.45-4.89.25-.1.5-.2.74-.31l.47-.2c.83-.34,1.67-.69,2.52-1.06.73-.32,1.46-.65,2.19-.99.7-.32,1.4-.66,2.11-1.01.92-.45,1.83-.9,2.74-1.38l.24-.12c.29-.15.59-.3.84-.45,1.49-.79,2.86-1.55,4.13-2.27.87-.5,1.95-.4,2.71.26,5.61,4.82,15.41,11.02,28.03,12.73,17.61,2.39,33.97-10.4,38.04-13.88.54-.46.59-1.27.12-1.8l-11.03-12.35c-.57-.64-1.56-.7-2.2-.13-3.16,2.85-12.57,10.3-22.88,8.82Zm-.04-51.7c2.04,0,3.14,2.4,1.79,3.93-.09.1-.19.21-.28.32-6.88,7.69-14.4,14.97-22.07,21.37-1.72,1.44-4.35-.08-3.91-2.28,1.08-5.38,3.67-11.16,8.21-15.72,5.02-5.05,10.5-7.62,16.27-7.62h0Zm-69.29,4.25c-5.42,6.06-12.11,10.74-19.94,13.97-2.08.86-4.1-1.36-3.07-3.36,1.4-2.71,3.17-5.17,5.23-7.25,5.02-5.06,10.5-7.62,16.27-7.62h0c2.04,0,3.14,2.41,1.79,3.93-.09.1-.19.21-.28.32Z"/>
        <path class="cls-2" d="m565.68,281.58l-8.29-9.28c-1.26-1.41-3.37-1.58-4.81-.39-7.08,5.87-14.32,8.46-21.5,7.7-4.67-.49-9.35-2.34-13.92-5.5-.2-.14-.25-.33-.25-.46,0-.1.02-.35.25-.54,10.37-8.07,20.7-17.74,29.86-27.98,5.03-5.63,11.45-14.14,9.03-23.01-2.27-8.32-10.3-10.88-13.32-11.84-6.92-2.2-24.83-5.48-41.74,11.54-15,15.1-19.05,40.82-8.66,55.05,6.96,9.53,20.25,20.33,36.71,22.07,1.49.16,3,.24,4.48.24,11,0,22-4.36,31.83-12.6.72-.6,1.15-1.46,1.22-2.4.07-.94-.25-1.89-.88-2.59Zm-30.12-53.13c-.68.95-1.65,2.18-3.02,3.71-7.86,8.78-16.68,17.15-25.51,24.19-.28.22-.54.14-.68.07-.11-.06-.37-.23-.35-.62.34-7.51,3.61-15.09,8.77-20.28,5.02-5.05,10.5-7.62,16.27-7.62,1.53,0,3.04.18,4.52.54Z"/>
        <path class="cls-2" d="m151.56,235.09c-7.81-4.39-16.61-5.82-25.47-4.14-19.26,3.66-34.49,20.98-35.41,40.29-.74,15.52,8.74,28.9,24.74,34.9,5.41,2.03,11.06,3.06,16.77,3.06,12.07,0,23.28-4.69,30.77-12.86,8.03-8.77,11.34-20.12,9.32-31.95-2.1-12.23-9.84-23.19-20.71-29.3Zm-3.31,49.27c-6.73,7.35-18.01,7.62-25.64,4.75-3.94-1.48-13.04-6.1-12.52-17.05.52-10.79,9.42-21.17,19.84-23.16h0c1.12-.21,2.24-.32,3.33-.32,2.9,0,5.69.75,8.34,2.23,6,3.37,10.29,9.54,11.48,16.49,1.1,6.39-.62,12.45-4.84,17.05Z"/>
        <path class="cls-2" d="m176.24,236.3c4.71,6.89,18.66,32.23.53,68.83-.86,1.73-.22,3.84,1.45,4.8l10.51,6.07c.56.33,1.2.49,1.84.49.34,0,.69-.05,1.02-.15.97-.28,1.76-.93,2.22-1.83,3.15-6.11,13.27-27.97,11.24-52.96-.04-.52.32-.72.54-.79.18-.06.65-.14.94.35,5.8,9.77,9.86,19.76,10.57,26.06.12,1.05.68,1.99,1.54,2.59.87.6,1.94.8,2.97.54l11.04-2.75c1.47-.37,2.58-1.63,2.75-3.13.94-8.37,3.87-21.45,9.27-33.03.25-.53.71-.48.9-.44.19.04.62.21.6.79-.54,23.09,2.99,43.74,10.48,61.38.41.96,1.22,1.7,2.22,2.03,1,.33,2.09.2,2.99-.34,2.81-1.7,7.14-3.66,10.86-4.09,1.13-.13,2.12-.75,2.72-1.71.6-.97.73-2.15.34-3.24-5.09-14.25-8.1-31.11-8.7-48.77-.34-10.01-.15-18.15.61-25.6.3-2.98.79-6.16,1.5-9.73.66-3.35,1.45-6.73,2.14-9.62.19-.8.04-1.65-.42-2.33-.45-.68-1.17-1.15-1.98-1.28-1.06-.18-3.63-.34-6.36-.51-2.49-.16-5.07-.32-5.98-.47-.86-.14-1.73,0-2.5.43l-4.66,3.68c-10.9,10.1-20.26,24.46-25.67,39.39-.04.1-.1.15-.19.16-.1,0-.14-.05-.16-.08-4.9-7.78-10.8-15.05-17.56-21.61-.18-.18-19.79-17.24-22.98-17.24-.02,0-.05,0-.07,0l-.77.11-9.92,13.65c-.91,1.25-.93,2.94-.06,4.22l4.19,6.13Z"/>
        <path class="cls-2" d="m415.92,283.77c4.9,1.98,10.3,2.97,15.62,2.84,7.36-.19,14.99-2.41,23.32-6.81.37-.19.71-.11.88-.05.17.07.48.24.63.65,1.83,5.11,3.79,9.27,5.11,11.87.49.96,1.32,1.66,2.34,1.97.39.12.78.18,1.17.18.65,0,1.3-.16,1.89-.49l11.94-6.53c1.86-1.02,2.59-3.37,1.63-5.24-12.19-23.76-7.16-40.56-5.33-45.14,10.1-25.31,24.69-36.39,48.79-37.07,2.1-.06,3.82-1.84,3.82-3.96v-13.6c0-1.06-.44-2.1-1.2-2.84-.76-.74-1.74-1.18-2.82-1.11-32.87.83-55.29,17.38-68.55,50.6h0s-.02.05-.03.08c-6.83-2.77-12.81-4.39-17.79-4.81-17.38-1.48-31.04,3.85-38.44,15.01-4.38,6.6-5.43,14.61-2.97,22.57,2.96,9.57,10.82,18.16,20.02,21.89Zm.87-32.56c3.07-4.62,9.7-5.64,14.97-5.64,1.37,0,2.64.07,3.74.16,3.4.29,8.68,1.98,14.87,4.76.37.17.61.56.61,1.01,0,1.6.06,3.24.17,4.88.03.41-.16.8-.49,1.01-5.6,3.5-12.9,7.54-19.67,7.71h0c-2.34.06-4.78-.37-7-1.27-3.19-1.29-6.5-4.94-7.54-8.3-.8-2.59.03-3.84.34-4.31Z"/>
      </g>
    </g>
  </g>
</svg>