<?xml version="1.0" encoding="UTF-8"?>
<svg id="Layer_1" data-name="Layer 1" xmlns="http://www.w3.org/2000/svg" viewBox="0 0 612 612">
  <defs>
    <style>
      .cls-1 {
        fill: #95d3bf;
      }

      .cls-1, .cls-2, .cls-3 {
        stroke-width: 0px;
      }

      .cls-2 {
        fill: #e13e4d;
      }

      .cls-3 {
        fill: #e086ab;
      }
    </style>
  </defs>
  <rect class="cls-3" width="612" height="612" rx="119.35" ry="119.35"/>
  <g>
    <path class="cls-1" d="m599.22,284.5c.45-6.25-1.68-12.51-5.85-17.18l-8.72-9.76c-1.96-2.2-4.24-3.94-6.71-5.21-.63-.33-.78-1.17-.34-1.72,6.02-7.6,14.44-21.34,9.94-37.85-2.36-8.67-8.96-20.21-26.95-25.94-.39-.12-.82-.26-1.3-.39s-.81-.58-.81-1.09v-9.17c0-6.36-2.61-12.55-7.18-17.01-4.65-4.53-10.94-6.97-17.32-6.71-36.39.97-63.7,17.25-81.4,48.46-.23.41-.71.63-1.18.55-2-.37-3.94-.63-5.8-.79-20.71-1.75-38.69,3.9-50.99,15.69-.39.38-.99.42-1.43.11l-5.6-4.01c-4.94-3.55-11.2-4.94-17.24-3.79-1.06.2-2.09.49-3.1.84-.79.28-1.59-.36-1.49-1.19l.55-4.59c.76-6.32-1.12-12.76-5.15-17.66-4.05-4.93-10.03-8.03-16.39-8.5-15.71-1.17-31.28,2.74-45.63,11.37-.24.14-.52.19-.79.14l-8.69-1.77c-3.44-.69-6.91-.58-10.22.24-.29.07-.59.02-.84-.13-2.52-1.58-5.35-2.67-8.33-3.16-1.99-.33-4.46-.5-8.68-.76-1.45-.09-3.83-.24-4.67-.33-5.08-.75-10.35.19-14.87,2.68l-1.34.73c-.05.03-.11.06-.16.1l-6.09,4.8-1.18,1.01c-6.33,5.86-12.23,12.84-17.41,20.47-.47-.47-.94-.93-1.41-1.39-1.05-1.02-7.21-6.28-12.26-10.34-6.55-5.28-13.29-10.08-20.81-13.89-2.38-1.21-4.9-2.34-7.57-2.43-6.96-.22-10.7,6.83-14.24,11.71-2.04,2.81-4.07,5.62-6.11,8.42-.76,1.05-2.4.2-1.99-1.02l2.27-6.78c2.37-7.07,1.2-14.91-3.12-20.98-4.33-6.07-11.37-9.74-18.83-9.8-20.05-.17-57.64,3.32-84.46,28.65-29.01,27.4-40.1,62.56-32.07,101.66,8.03,39.07,42.93,70.73,82.99,75.28,5.21.59,10.59.89,15.97.89,10.93,0,21.96-1.27,32.37-3.67.73-.17,1.4.4,1.36,1.15-.69,13.13,1.84,26.59,7.52,38.85,9.38,20.24,25.92,35.12,46.56,41.89,8.05,2.64,16.59,3.98,25.39,3.98,10.32,0,20.61-1.83,30.59-5.42,1.2-.43,2.49-.92,3.84-1.45.46-.18.97-.04,1.29.33,2.84,3.41,6.68,5.96,11.06,7.17,18.82,5.2,39.06,2.95,55.97-5.55.41-.2.89-.14,1.23.16,2.28,1.99,4.97,3.51,7.94,4.44,6.89,2.15,17.05,4.72,26.28,4.72,11.9,0,22.9-3.21,32.7-9.54,14.64-9.46,23.53-22.39,26.78-39.09.16-.81,1.08-1.19,1.76-.71,8.79,6.22,20.59,11.29,36.02,11.29,9.91,0,20.56-2.17,31.67-6.44.51-.19,1-.4,1.39-.57l.35-.15c.99-.4,1.99-.82,2.99-1.26.9-.39,1.8-.8,2.66-1.2.55-.25,1.11-.52,1.66-.78.34-.16.73-.15,1.06.05,7.31,4.44,17.22,8.86,29.31,10.5,26.37,3.57,48.99-13.7,55.29-19.07,4.26-3.63,6.92-8.91,7.29-14.49.38-5.58-1.54-11.18-5.27-15.35l-11.6-12.98c-1.5-1.68-3.23-3.08-5.12-4.19-.59-.35-.76-1.11-.34-1.65,5.99-7.67,14.08-21.24,9.65-37.49-.62-2.29-1.56-4.79-2.91-7.32-.28-.53-.12-1.17.39-1.49,3.3-2.05,6.52-4.39,9.64-7.01,4.79-4.01,7.79-9.89,8.23-16.11Zm-378.3,111.11c-4.37-1.43-8.81-5.61-11.32-10.65-2.64-5.29-3.07-11.2-1.21-16.65.69-2.03,4.28-10.47,17.14-14.73.77-.26,1.53.39,1.45,1.2-.8,7.89-.42,15.53.87,22.02,1.24,6.22,3.48,12.06,6.52,17.38.37.65.04,1.5-.7,1.66-4.56,1.02-9.13.96-12.75-.23Z"/>
    <g>
      <path class="cls-2" d="m103.52,325.66c-19.9-2.26-38.58-19.08-42.53-38.29-4.8-23.39,1.04-41.92,18.4-58.31,12.96-12.24,33.22-15.2,45.79-15.78,1.56-.07,2.9-1.09,3.4-2.57l6.6-19.69c.82-2.44-.98-4.96-3.56-4.98-14.7-.13-48.41,2.12-70.85,23.31-24.17,22.82-33.03,50.91-26.34,83.48,6.27,30.51,34.65,56.21,66.02,59.77,4.53.51,9.14.77,13.76.77,11.92,0,23.89-1.7,34.73-4.92,2.49-.74,3.49-3.74,1.96-5.84l-12.35-17.01c-.89-1.22-2.41-1.77-3.88-1.46-9.97,2.11-20.95,2.69-31.16,1.54Z"/>
      <g>
        <path class="cls-2" d="m316.43,250.25c-6.46,17.35.49,32.64,10.94,37.4,3.62,1.65,7.73,2.45,12.56,2.45,1.01,0,1.95-.03,2.8-.08,10.08-.54,20.85-2.96,31.15-7,.34.89.63,1.64.87,2.23.28.68.8,1.21,1.49,1.49.69.28,1.44.28,2.12-.01l13.75-5.88c1.35-.58,2.01-2.16,1.46-3.52h0c-4.05-10.04-8.83-28.88-4.44-36.69.67-1.2.33-2.72-.8-3.53l-12.18-8.73c-.61-.44-1.38-.61-2.12-.47-.74.14-1.36.56-1.76,1.19-.84,1.32-1.6,2.77-2.25,4.31-7.8-2.95-19.15-5.78-29.36-2.85-13.08,3.76-20.55,9.84-24.21,19.69Zm18.33,9.07c1.61-4.33,5.49-7.4,11.53-9.14,1.16-.33,2.43-.48,3.77-.48,6.18,0,13.66,3.08,17.14,4.69.2,2.81.58,5.78,1.13,8.82-8.73,3.69-18.2,5.96-26.69,6.42-1.01.05-4.09.22-5.81-.57-3.03-1.38-2.03-7.16-1.07-9.75Z"/>
        <path class="cls-2" d="m267.45,414.57c-2.89-1.32-5.75-2.75-8.28-4.67-1.4-1.06-3.28-1.29-4.9-.6-2.18.93-5.3,2.12-10.13,3.86-9.86,3.56-20.55,3.94-29.33,1.06-9.36-3.07-17.86-10.74-22.74-20.51-4.99-10-5.79-21.26-2.23-31.7,4.59-13.49,19.41-28.54,47.22-30.3,1.57-.1,2.99-.94,3.79-2.25.77-1.27.88-2.77.29-4.13l-4.41-10.1c-.82-1.88-2.77-3.01-4.87-2.81-31.48,2.92-52.72,18.01-61.44,43.63-4.86,14.26-3.83,30.67,2.82,45.01,7.08,15.26,19.47,26.46,34.91,31.52,6.07,1.99,12.56,3.01,19.28,3.01,8.04,0,16.1-1.43,23.95-4.26,4.97-1.79,9.9-3.87,14.29-6.84,2.19-1.48,4.33-3.19,6.07-5.19,1.64-1.89-.06-2.79-1.82-3.59-.82-.37-1.65-.74-2.47-1.12Z"/>
        <path class="cls-2" d="m255.79,331.54c-9.37,11.65-11.1,29.64-8.74,41.42,3.43,17.16,18.21,30.11,35.95,31.5,1.01.08,2.04.12,3.04.12,14.28,0,26.14-7.92,30.96-20.66,4.58-12.11,3.39-27.22-3.19-40.42-7.39-14.83-20.47-22.81-36.91-22.51-8.4.16-15.7,3.81-21.11,10.54Zm39.24,19.72c4.6,7.71,5.73,18.06,2.82,25.74-2.75,7.26-9.47,7.86-13.23,7.57-7.31-.57-15.58-5.57-17.55-15.43-1.82-9.1-.85-24.11,6.99-27.45.16-.07.32-.13.48-.19,1.76-.64,3.83-.8,6.13-.49,5.78.78,10.88,4.43,14.35,10.26Z"/>
        <path class="cls-2" d="m288.49,306.74c.54,1.31,1.76,2.21,3.2,2.35,5.24.52,10.12,1.55,14.51,3.07.42.15.86.22,1.28.22,1.1,0,2.17-.47,2.91-1.33,1.03-1.18,1.22-2.85.51-4.25-4.43-8.62-7.77-18.33-9.91-28.87-1-4.93-1.77-10.18-2.29-15.61-.56-5.94.65-12.83,3.43-19.41,2.71-6.41,7.42-12.46,12.92-16.61,5.86-4.42,15.17-9.55,26.26-8.87,1.99.13,3.78-1.36,4.02-3.37l1.53-12.65c.13-1.05-.17-2.08-.85-2.9-.67-.81-1.66-1.32-2.71-1.4-14.59-1.09-29.12,3.85-42.22,14.29-.47-1.16-1.49-2.08-2.8-2.34l-12.48-2.54c-1.01-.2-2.05,0-2.91.58s-1.44,1.45-1.64,2.47c-1.9,9.87-3.09,19.77-3.54,29.38-.13,1.61-.13,2.94-.13,2.95-.73,23.25,3.04,45.68,10.91,64.88Z"/>
        <path class="cls-2" d="m538.75,381.94c-4.67-.67-8.88-2.27-12.26-4.27-1.53-.9-1.68-3.05-.3-4.16,13.45-10.74,23.97-21.81,29.32-27.78,5.29-5.91,12.02-14.84,9.48-24.16-2.38-8.73-10.82-11.42-14-12.43-7.26-2.31-26.09-5.76-43.85,12.12-12.43,12.51-18.04,32.52-13.78,47.9.31,1.1-.21,2.28-1.21,2.83-2.81,1.56-5.58,2.96-8.27,4.17l-.56.25c-1.01.44-2.01.86-2.99,1.25-20.5,8.13-29.92,1.87-36.05-5.31-1.17-1.37-.57-3.5,1.15-4.04,14.1-4.39,26.36-12.13,35.72-22.59,5.29-5.91,12.02-14.84,9.48-24.16-2.38-8.73-10.82-11.42-13.99-12.43-7.27-2.31-26.09-5.75-43.85,12.12-7.57,7.62-12.77,18.03-14.54,28.97-.19,1.2-1.18,2.11-2.39,2.17-6.01.29-12.43-.32-15.39-.66-1.03-.12-1.86-.86-2.13-1.86-.72-2.71-1.13-4.95-1.49-6.86-2.85-15.25-1.7-19.23,2.03-22.3,2.31-1.9,4.84-1.33,6.51-.54,1.16.54,2.55.12,3.24-.96l8.27-12.9c.77-1.2.42-2.84-.83-3.54-7.18-4-18.24-4.41-30.29,2.27-14.04,7.79-11.67,28.91-9.89,38.02.37,1.91-1.49,3.51-3.32,2.86-9.59-3.36-18.59-7.94-25.98-13.23-.68-.49-1.08-1.29-1.05-2.13.09-2.05.37-4.06.82-5.89.23-.94.78-2.82,1.62-3.83,3.28-3.93,9.64-1.35,13.43.74,1.52.84,3.4-.07,3.7-1.78l2.56-14.51c.18-1.02-.26-2.05-1.14-2.59-6.68-4.07-19.64-6.7-30.46,2.23-14.6,12.04-11.4,29.57-9.28,41.18.47,2.56.98,5.15,1.5,7.76l.03.16c3.98,20.04,7.74,38.98-7.65,54.41-3.01,3.02-7.5,5.72-11.45,7.12-5.29,1.87-10.67,2.8-16.44,2.67-.59-.01-1.42.3-1.83.73-4.36,4.47-8.26,9.35-12.61,13.83-1.3,1.34-.73,3.61,1.07,4.11,19.3,5.33,41.49.21,55.71-14.04,18.5-18.55,18.68-40,15.64-59.61-.31-2,1.73-3.52,3.55-2.66,8.41,3.98,17.33,7.01,26.61,9.05.96.21,1.72.94,1.95,1.89,5.62,22.87,6.07,36.9-6.28,44.88-5.39,3.49-15.75,2.01-19.58,1.31-.92-.17-1.85.19-2.43.92l-10.65,13.52c-1.1,1.39-.47,3.45,1.22,3.98,4.71,1.47,13.36,3.83,20.44,3.83,8.07,0,15.5-2.16,22.07-6.4,11.83-7.65,24.23-21.1,17.17-57.49-.31-1.62.96-3.13,2.6-3.04,4.27.24,8.19-.1,11.08-.34.57-.05,1.09-.09,1.58-.13.94,2.38,2.13,4.56,3.55,6.51,5.42,7.41,16.69,22.84,39.2,22.84,7.5,0,15.78-1.73,24.63-5.13.26-.1.52-.21.78-.33l.5-.21c.87-.35,1.76-.72,2.65-1.11.77-.34,1.54-.68,2.3-1.04.73-.34,1.48-.69,2.22-1.06.96-.47,1.92-.95,2.87-1.45l.25-.13c.31-.16.61-.32.88-.47,1.57-.83,3-1.63,4.34-2.39.92-.52,2.05-.42,2.85.27,5.89,5.06,16.19,11.57,29.44,13.37,18.5,2.51,35.68-10.93,39.95-14.57.57-.48.62-1.33.12-1.89l-11.59-12.97c-.6-.67-1.64-.74-2.31-.13-3.32,2.99-13.2,10.81-24.03,9.27Zm-.04-54.29c2.14,0,3.29,2.52,1.88,4.13-.1.11-.2.22-.3.33-7.23,8.08-15.13,15.71-23.19,22.44-1.81,1.51-4.57-.09-4.1-2.4,1.13-5.65,3.86-11.72,8.62-16.51,5.28-5.31,11.03-8,17.09-8h0Zm-72.78,4.46c-5.7,6.36-12.72,11.28-20.94,14.67-2.18.9-4.31-1.43-3.22-3.53,1.47-2.84,3.33-5.43,5.5-7.61,5.28-5.31,11.03-8,17.09-8h0c2.14,0,3.29,2.53,1.88,4.13-.1.11-.2.22-.3.33Z"/>
        <path class="cls-2" d="m578.76,280.36l-8.71-9.75c-1.32-1.48-3.54-1.66-5.05-.41-7.43,6.16-15.04,8.89-22.59,8.08-4.9-.52-9.82-2.46-14.62-5.77-.21-.14-.26-.34-.26-.49,0-.1.02-.37.27-.56,10.9-8.47,21.74-18.63,31.37-29.38,5.29-5.91,12.02-14.84,9.48-24.16-2.38-8.73-10.82-11.42-14-12.43-7.27-2.31-26.09-5.75-43.85,12.12-15.76,15.86-20.01,42.87-9.09,57.8,7.31,10,21.28,21.34,38.56,23.17,1.56.16,3.15.25,4.71.25,11.55,0,23.11-4.58,33.43-13.24.76-.63,1.21-1.53,1.28-2.52.07-.99-.27-1.98-.93-2.72Zm-31.64-55.79c-.71,1-1.73,2.29-3.17,3.9-8.25,9.22-17.52,18-26.8,25.4-.29.23-.57.15-.71.08-.12-.06-.39-.24-.37-.65.35-7.88,3.8-15.84,9.21-21.3,5.27-5.31,11.02-8,17.09-8,1.6,0,3.2.19,4.75.57Z"/>
        <path class="cls-2" d="m143.76,231.54c-8.2-4.61-17.45-6.11-26.76-4.35-20.23,3.85-36.23,22.04-37.2,42.31-.78,16.3,9.18,30.34,25.99,36.65,5.69,2.13,11.61,3.21,17.61,3.21,12.68,0,24.46-4.92,32.32-13.5,8.44-9.21,11.92-21.12,9.79-33.55-2.2-12.85-10.34-24.35-21.76-30.77Zm-3.48,51.74c-7.07,7.72-18.92,8-26.94,4.99-4.14-1.55-13.7-6.4-13.15-17.91.54-11.33,9.89-22.23,20.84-24.32h0c1.18-.23,2.35-.34,3.5-.34,3.04,0,5.98.78,8.76,2.35,6.3,3.54,10.81,10.02,12.06,17.32,1.15,6.71-.65,13.07-5.08,17.91Z"/>
        <path class="cls-2" d="m169.69,232.81c4.95,7.24,19.6,33.84.55,72.28-.9,1.82-.23,4.03,1.52,5.04l11.04,6.38c.59.34,1.26.52,1.93.52.36,0,.72-.05,1.07-.15,1.02-.3,1.85-.98,2.33-1.92,3.31-6.41,13.94-29.37,11.8-55.61-.05-.55.33-.75.56-.83.19-.06.68-.15.98.36,6.1,10.26,10.35,20.75,11.11,27.37.12,1.1.71,2.09,1.62,2.72.91.63,2.04.84,3.12.57l11.6-2.88c1.55-.38,2.71-1.71,2.89-3.29.98-8.79,4.06-22.52,9.74-34.69.26-.55.75-.5.94-.46.2.05.65.22.64.83-.57,24.24,3.14,45.93,11.01,64.46.43,1.01,1.28,1.79,2.33,2.13,1.05.34,2.19.21,3.14-.36,2.95-1.78,7.5-3.84,11.41-4.29,1.19-.14,2.22-.79,2.85-1.8.64-1.02.77-2.26.36-3.4-5.35-14.96-8.51-32.67-9.14-51.21-.36-10.52-.15-19.06.64-26.88.32-3.13.83-6.47,1.57-10.22.7-3.52,1.52-7.06,2.24-10.11.2-.84.04-1.73-.44-2.45-.48-.71-1.23-1.2-2.08-1.34-1.11-.18-3.82-.36-6.68-.54-2.62-.17-5.33-.34-6.28-.49-.9-.15-1.82,0-2.62.45l-4.9,3.86c-11.45,10.61-21.28,25.68-26.96,41.37-.04.1-.1.16-.2.17-.1,0-.15-.05-.17-.08-5.14-8.17-11.35-15.8-18.45-22.7-.19-.18-20.78-18.1-24.14-18.1-.03,0-.05,0-.07,0l-.81.12-10.42,14.33c-.95,1.31-.98,3.09-.06,4.43l4.4,6.44Z"/>
        <path class="cls-2" d="m421.45,282.65c5.15,2.08,10.82,3.12,16.41,2.98,7.73-.2,15.75-2.53,24.5-7.15.39-.2.75-.12.92-.05.18.07.51.25.66.68,1.93,5.36,3.98,9.74,5.36,12.46.51,1,1.38,1.74,2.46,2.07.41.13.82.19,1.23.19.69,0,1.37-.17,1.99-.51l12.54-6.86c1.95-1.07,2.72-3.54,1.71-5.5-12.8-24.95-7.52-42.59-5.6-47.4,10.61-26.57,25.94-38.21,51.25-38.92,2.21-.06,4.01-1.93,4.01-4.16v-14.28c0-1.12-.46-2.2-1.26-2.98-.8-.78-1.83-1.24-2.97-1.17-34.52.87-58.08,18.25-72.01,53.13h0s-.02.06-.03.08c-7.17-2.91-13.46-4.61-18.69-5.05-18.26-1.55-32.6,4.05-40.38,15.77-4.6,6.93-5.71,15.34-3.12,23.7,3.11,10.05,11.36,19.07,21.03,22.98Zm.91-34.19c3.22-4.85,10.18-5.92,15.72-5.92,1.44,0,2.78.07,3.93.17,3.57.3,9.12,2.08,15.62,5,.39.18.65.59.65,1.06,0,1.68.06,3.4.18,5.12.03.43-.17.84-.52,1.06-5.88,3.68-13.55,7.92-20.66,8.1h0c-2.46.06-5.02-.39-7.35-1.33-3.35-1.36-6.83-5.19-7.93-8.72-.84-2.72.03-4.03.36-4.53Z"/>
      </g>
    </g>
  </g>
</svg>