<?xml version="1.0" encoding="UTF-8"?>
<svg id="Layer_1" data-name="Layer 1" xmlns="http://www.w3.org/2000/svg" viewBox="0 0 612 612">
  <defs>
    <style>
      .cls-1 {
        fill: #f8eda3;
      }

      .cls-1, .cls-2, .cls-3 {
        stroke-width: 0px;
      }

      .cls-2 {
        fill: #7ab7c2;
      }

      .cls-3 {
        fill: #64cadc;
      }
    </style>
  </defs>
  <rect class="cls-3" width="612" height="612"/>
  <g>
    <path class="cls-1" d="m481.08,293.45c.27-3.65-1-7.31-3.49-10.04l-5.21-5.7c-1.17-1.28-2.53-2.3-4.01-3.04-.38-.19-.47-.68-.2-1.01,3.59-4.44,8.62-12.46,5.93-22.11-1.41-5.06-5.35-11.8-16.09-15.15-.23-.07-.49-.15-.78-.23s-.49-.34-.49-.63v-5.35c0-3.71-1.56-7.33-4.29-9.94-2.78-2.64-6.53-4.07-10.34-3.92-21.73.57-38.03,10.08-48.6,28.3-.14.24-.42.37-.7.32-1.19-.21-2.35-.37-3.47-.46-12.37-1.02-23.1,2.28-30.44,9.16-.23.22-.59.25-.85.06l-3.34-2.34c-2.95-2.07-6.69-2.89-10.29-2.22-.63.12-1.25.28-1.85.49-.47.16-.95-.21-.89-.7l.33-2.68c.45-3.69-.67-7.45-3.08-10.32-2.42-2.88-5.99-4.69-9.79-4.97-9.38-.68-18.68,1.6-27.24,6.64-.14.08-.31.11-.47.08l-5.19-1.03c-2.06-.4-4.13-.34-6.1.14-.17.04-.35.01-.5-.08-1.5-.92-3.19-1.56-4.97-1.85-1.19-.19-2.66-.29-5.18-.44-.86-.05-2.28-.14-2.79-.19-3.04-.44-6.18.11-8.88,1.56l-.8.43s-.06.04-.09.06l-3.64,2.81-.71.59c-3.78,3.42-7.3,7.5-10.39,11.96-.28-.27-.56-.54-.84-.81-.63-.6-4.31-3.67-7.32-6.04-3.91-3.08-7.93-5.89-12.43-8.11-1.42-.71-2.93-1.37-4.52-1.42-4.16-.13-6.39,3.99-8.5,6.84-1.22,1.64-2.43,3.28-3.65,4.92-.45.61-1.43.12-1.19-.6l1.36-3.96c1.42-4.13.72-8.71-1.87-12.25-2.58-3.55-6.79-5.69-11.24-5.72-11.97-.1-34.42,1.94-50.43,16.73-17.32,16-23.94,36.53-19.15,59.37,4.79,22.82,25.63,41.31,49.55,43.97,3.11.35,6.32.52,9.54.52,6.52,0,13.11-.74,19.33-2.14.44-.1.84.23.81.67-.41,7.67,1.1,15.53,4.49,22.69,5.6,11.82,15.48,20.51,27.8,24.47,4.81,1.54,9.9,2.33,15.16,2.33,6.16,0,12.31-1.07,18.27-3.17.72-.25,1.49-.54,2.29-.85.27-.11.58-.03.77.2,1.69,1.99,3.99,3.48,6.61,4.19,11.24,3.04,23.32,1.72,33.42-3.24.24-.12.53-.08.74.1,1.36,1.16,2.97,2.05,4.74,2.59,4.12,1.26,10.18,2.76,15.69,2.76,7.11,0,13.67-1.88,19.52-5.57,8.74-5.53,14.05-13.08,15.99-22.83.09-.48.65-.7,1.05-.42,5.25,3.63,12.29,6.59,21.5,6.59,5.92,0,12.28-1.27,18.91-3.76.3-.11.6-.24.83-.33l.21-.09c.59-.23,1.19-.48,1.79-.74.54-.23,1.07-.47,1.59-.7.33-.15.66-.3.99-.46.2-.1.44-.09.63.03,4.37,2.59,10.28,5.17,17.5,6.13,15.75,2.09,29.25-8,33.01-11.14,2.54-2.12,4.13-5.2,4.36-8.46.23-3.26-.92-6.53-3.15-8.96l-6.93-7.58c-.9-.98-1.93-1.8-3.06-2.45-.35-.2-.45-.65-.2-.96,3.58-4.48,8.41-12.4,5.76-21.89-.37-1.34-.93-2.8-1.74-4.28-.17-.31-.07-.69.23-.87,1.97-1.2,3.9-2.56,5.76-4.09,2.86-2.34,4.65-5.78,4.91-9.41Zm-225.87,64.89c-2.61-.84-5.26-3.28-6.76-6.22-1.58-3.09-1.83-6.54-.73-9.72.41-1.19,2.56-6.12,10.24-8.6.46-.15.92.23.87.7-.48,4.61-.25,9.07.52,12.86.74,3.63,2.08,7.04,3.9,10.15.22.38.02.87-.42.97-2.72.59-5.45.56-7.61-.13Z"/>
    <g>
      <path class="cls-2" d="m185.11,317.48c-11.88-1.32-23.03-11.14-25.39-22.36-2.87-13.66.62-24.48,10.98-34.06,7.74-7.15,19.84-8.88,27.34-9.22.93-.04,1.73-.64,2.03-1.5l3.94-11.5c.49-1.42-.59-2.89-2.12-2.91-8.78-.07-28.91,1.24-42.3,13.61-14.43,13.33-19.72,29.73-15.72,48.75,3.74,17.82,20.69,32.83,39.42,34.91,2.71.3,5.46.45,8.22.45,7.12,0,14.27-.99,20.74-2.87,1.49-.43,2.08-2.18,1.17-3.41l-7.37-9.94c-.53-.71-1.44-1.04-2.32-.85-5.95,1.23-12.51,1.57-18.61.9Z"/>
      <g>
        <path class="cls-2" d="m312.23,273.44c-3.86,10.13.29,19.06,6.53,21.84,2.16.96,4.62,1.43,7.5,1.43.6,0,1.17-.02,1.67-.05,6.02-.31,12.45-1.73,18.6-4.09.2.52.38.96.52,1.3.17.4.48.71.89.87.41.16.86.16,1.26,0l8.21-3.43c.81-.34,1.2-1.26.87-2.06h0c-2.42-5.86-5.27-16.86-2.65-21.43.4-.7.2-1.59-.48-2.06l-7.27-5.1c-.36-.26-.82-.35-1.27-.27-.44.08-.81.33-1.05.69-.5.77-.96,1.62-1.35,2.52-4.66-1.72-11.43-3.38-17.53-1.66-7.81,2.2-12.27,5.74-14.46,11.5Zm10.94,5.3c.96-2.53,3.28-4.32,6.88-5.34.69-.19,1.45-.28,2.25-.28,3.69,0,8.15,1.8,10.23,2.74.12,1.64.35,3.37.67,5.15-5.22,2.15-10.87,3.48-15.94,3.75-.61.03-2.44.13-3.47-.33-1.81-.81-1.21-4.18-.64-5.69Z"/>
        <path class="cls-2" d="m282.99,369.41c-1.72-.77-3.43-1.61-4.94-2.73-.84-.62-1.96-.76-2.93-.35-1.3.54-3.17,1.24-6.05,2.25-5.89,2.08-12.27,2.3-17.51.62-5.59-1.79-10.67-6.27-13.58-11.98-2.98-5.84-3.45-12.42-1.33-18.51,2.74-7.88,11.59-16.67,28.2-17.7.94-.06,1.79-.55,2.26-1.32.46-.74.52-1.62.17-2.41l-2.63-5.9c-.49-1.1-1.66-1.76-2.91-1.64-18.79,1.7-31.48,10.52-36.68,25.48-2.9,8.33-2.29,17.91,1.68,26.29,4.23,8.91,11.63,15.45,20.84,18.41,3.63,1.16,7.5,1.76,11.51,1.76,4.8,0,9.61-.84,14.3-2.49,2.97-1.05,5.91-2.26,8.53-3.99,1.31-.86,2.59-1.86,3.62-3.03.98-1.1-.04-1.63-1.09-2.09-.49-.22-.98-.43-1.47-.65Z"/>
        <path class="cls-2" d="m276.03,320.92c-5.59,6.8-6.63,17.31-5.22,24.19,2.05,10.02,10.87,17.58,21.46,18.4.61.05,1.22.07,1.82.07,8.53,0,15.61-4.62,18.49-12.06,2.74-7.07,2.02-15.9-1.91-23.61-4.41-8.66-12.22-13.32-22.04-13.14-5.01.1-9.37,2.22-12.6,6.16Zm23.43,11.52c2.74,4.5,3.42,10.54,1.69,15.03-1.64,4.24-5.65,4.59-7.9,4.42-4.37-.34-9.3-3.25-10.48-9.01-1.09-5.31-.51-14.08,4.17-16.03.09-.04.19-.08.28-.11,1.05-.37,2.28-.47,3.66-.29,3.45.46,6.5,2.58,8.57,5.99Z"/>
        <path class="cls-2" d="m295.55,306.43c.32.76,1.05,1.29,1.91,1.37,3.13.3,6.04.91,8.66,1.79.25.09.51.13.77.13.66,0,1.29-.27,1.74-.78.61-.69.73-1.66.3-2.48-2.65-5.03-4.64-10.71-5.92-16.86-.6-2.88-1.06-5.94-1.37-9.12-.34-3.47.39-7.49,2.05-11.34,1.62-3.74,4.43-7.28,7.71-9.7,3.5-2.58,9.05-5.57,15.68-5.18,1.19.08,2.25-.79,2.4-1.97l.91-7.39c.08-.61-.1-1.22-.51-1.69-.4-.48-.99-.77-1.62-.82-8.71-.63-17.39,2.25-25.21,8.35-.28-.68-.89-1.21-1.67-1.37l-7.45-1.48c-.61-.12-1.22,0-1.74.34s-.86.85-.98,1.44c-1.13,5.76-1.85,11.55-2.12,17.16-.08.94-.08,1.72-.08,1.72-.44,13.58,1.81,26.68,6.51,37.89Z"/>
        <path class="cls-2" d="m444.97,350.35c-2.79-.39-5.3-1.33-7.32-2.49-.91-.52-1.01-1.78-.18-2.43,8.03-6.28,14.31-12.74,17.5-16.22,3.16-3.45,7.18-8.67,5.66-14.11-1.42-5.1-6.46-6.67-8.36-7.26-4.34-1.35-15.57-3.36-26.18,7.08-7.42,7.31-10.77,19-8.23,27.97.18.64-.13,1.33-.72,1.65-1.68.91-3.33,1.73-4.94,2.44l-.34.15c-.6.26-1.2.5-1.79.73-12.24,4.75-17.86,1.09-21.53-3.1-.7-.8-.34-2.05.69-2.36,8.42-2.57,15.74-7.08,21.33-13.19,3.16-3.45,7.18-8.67,5.66-14.11-1.42-5.1-6.46-6.67-8.36-7.26-4.34-1.35-15.58-3.36-26.18,7.08-4.52,4.45-7.62,10.53-8.68,16.92-.12.7-.7,1.23-1.43,1.27-3.59.17-7.42-.19-9.19-.39-.61-.07-1.11-.5-1.27-1.09-.43-1.58-.67-2.89-.89-4.01-1.7-8.91-1.01-11.23,1.21-13.02,1.38-1.11,2.89-.77,3.89-.32.7.32,1.52.07,1.94-.56l4.94-7.54c.46-.7.25-1.66-.49-2.06-4.29-2.34-10.89-2.57-18.09,1.33-8.38,4.55-6.97,16.88-5.9,22.2.22,1.12-.89,2.05-1.98,1.67-5.73-1.96-11.1-4.64-15.51-7.73-.41-.29-.65-.75-.63-1.24.05-1.2.22-2.37.49-3.44.14-.55.47-1.65.97-2.24,1.96-2.3,5.76-.79,8.02.43.91.49,2.03-.04,2.21-1.04l1.53-8.48c.11-.59-.16-1.2-.68-1.51-3.99-2.38-11.72-3.91-18.19,1.3-8.72,7.03-6.81,17.27-5.54,24.05.28,1.5.59,3.01.89,4.53l.02.09c2.38,11.71,4.62,22.76-4.57,31.78-1.8,1.76-4.48,3.34-6.84,4.16-3.16,1.09-6.37,1.64-9.82,1.56-.35,0-.85.18-1.09.42-2.6,2.61-4.93,5.46-7.53,8.08-.78.78-.44,2.11.64,2.4,11.52,3.12,24.77.13,33.26-8.2,11.05-10.83,11.15-23.36,9.34-34.81-.18-1.17,1.03-2.06,2.12-1.55,5.02,2.32,10.34,4.09,15.89,5.28.57.12,1.03.55,1.17,1.11,3.36,13.35,3.62,21.55-3.75,26.21-3.22,2.04-9.4,1.18-11.69.76-.55-.1-1.11.11-1.45.54l-6.36,7.89c-.65.81-.28,2.01.73,2.32,2.81.86,7.98,2.24,12.21,2.24,4.82,0,9.25-1.26,13.18-3.74,7.06-4.47,14.47-12.32,10.25-33.57-.19-.94.57-1.83,1.56-1.77,2.55.14,4.89-.06,6.61-.2.34-.03.65-.05.94-.08.56,1.39,1.27,2.66,2.12,3.8,3.23,4.33,9.96,13.34,23.4,13.34,4.48,0,9.42-1.01,14.7-3,.16-.06.31-.12.47-.19l.3-.12c.52-.21,1.05-.42,1.58-.65.46-.2.92-.4,1.37-.61.44-.2.88-.41,1.33-.62.58-.27,1.15-.55,1.72-.84l.15-.08c.18-.09.37-.18.53-.27.94-.49,1.79-.95,2.59-1.39.55-.31,1.22-.24,1.7.16,3.52,2.96,9.67,6.76,17.58,7.81,11.04,1.47,21.3-6.38,23.86-8.51.34-.28.37-.78.07-1.1l-6.92-7.57c-.36-.39-.98-.43-1.38-.08-1.98,1.75-7.88,6.31-14.35,5.41Zm-.02-31.7c1.28,0,1.97,1.47,1.12,2.41-.06.06-.12.13-.18.19-4.31,4.72-9.03,9.18-13.85,13.11-1.08.88-2.73-.05-2.45-1.4.67-3.3,2.3-6.84,5.15-9.64,3.15-3.1,6.58-4.67,10.2-4.67h0Zm-43.46,2.61c-3.4,3.72-7.59,6.59-12.5,8.57-1.3.53-2.57-.83-1.93-2.06.88-1.66,1.99-3.17,3.28-4.45,3.15-3.1,6.58-4.67,10.21-4.67h0c1.28,0,1.97,1.47,1.12,2.41-.06.06-.12.13-.18.2Z"/>
        <path class="cls-2" d="m468.87,291.03l-5.2-5.69c-.79-.86-2.11-.97-3.02-.24-4.44,3.6-8.98,5.19-13.49,4.72-2.93-.3-5.86-1.44-8.73-3.37-.12-.08-.15-.2-.16-.28,0-.06.01-.22.16-.33,6.51-4.95,12.98-10.88,18.73-17.16,3.16-3.45,7.18-8.67,5.66-14.11-1.42-5.1-6.46-6.67-8.36-7.26-4.34-1.35-15.58-3.36-26.18,7.08-9.41,9.26-11.95,25.04-5.43,33.76,4.36,5.84,12.7,12.47,23.02,13.53.93.1,1.88.15,2.81.15,6.9,0,13.8-2.67,19.96-7.73.45-.37.72-.89.77-1.47.04-.58-.16-1.16-.55-1.59Zm-18.89-32.58c-.43.58-1.03,1.34-1.89,2.28-4.93,5.39-10.46,10.52-16,14.84-.17.14-.34.09-.43.04-.07-.04-.23-.14-.22-.38.21-4.6,2.27-9.25,5.5-12.44,3.15-3.1,6.58-4.67,10.2-4.67.96,0,1.91.11,2.84.33Z"/>
        <path class="cls-2" d="m209.14,262.51c-4.9-2.69-10.42-3.57-15.98-2.54-12.08,2.25-21.63,12.87-22.21,24.71-.47,9.52,5.48,17.72,15.52,21.4,3.4,1.25,6.93,1.88,10.52,1.88,7.57,0,14.6-2.87,19.3-7.89,5.04-5.38,7.11-12.34,5.84-19.59-1.32-7.5-6.17-14.22-12.99-17.97Zm-2.08,30.22c-4.22,4.51-11.3,4.67-16.08,2.92-2.47-.91-8.18-3.74-7.85-10.46.32-6.62,5.91-12.99,12.44-14.2h0c.71-.13,1.4-.2,2.09-.2,1.82,0,3.57.46,5.23,1.37,3.76,2.07,6.45,5.85,7.2,10.11.69,3.92-.39,7.63-3.03,10.46Z"/>
        <path class="cls-2" d="m224.62,263.25c2.95,4.23,11.7,19.76.33,42.21-.54,1.06-.14,2.36.91,2.95l6.59,3.72c.35.2.75.3,1.15.3.22,0,.43-.03.64-.09.61-.17,1.1-.57,1.39-1.12,1.98-3.75,8.32-17.16,7.05-32.48-.03-.32.2-.44.34-.48.11-.04.4-.09.59.21,3.64,5.99,6.18,12.12,6.63,15.98.07.64.43,1.22.97,1.59.54.37,1.22.49,1.86.33l6.93-1.68c.92-.22,1.62-1,1.73-1.92.59-5.14,2.42-13.15,5.82-20.26.15-.32.45-.29.56-.27.12.03.39.13.38.48-.34,14.16,1.87,26.82,6.58,37.65.26.59.76,1.04,1.39,1.24.63.2,1.31.12,1.87-.21,1.76-1.04,4.48-2.25,6.81-2.51.71-.08,1.33-.46,1.7-1.05.38-.6.46-1.32.21-1.99-3.19-8.74-5.08-19.08-5.46-29.91-.21-6.14-.09-11.13.38-15.7.19-1.83.5-3.78.94-5.97.42-2.06.91-4.12,1.34-5.9.12-.49.02-1.01-.26-1.43-.28-.42-.74-.7-1.24-.79-.66-.11-2.28-.21-3.99-.31-1.56-.1-3.18-.2-3.75-.29-.54-.09-1.08,0-1.57.27l-2.92,2.25c-6.84,6.19-12.71,15-16.1,24.16-.02.06-.06.09-.12.1-.06,0-.09-.03-.1-.05-3.07-4.77-6.77-9.23-11.01-13.26-.11-.11-12.41-10.57-14.41-10.57-.01,0-.03,0-.04,0l-.48.07-6.22,8.37c-.57.77-.58,1.8-.04,2.59l2.63,3.76Z"/>
        <path class="cls-2" d="m374.94,292.36c3.07,1.22,6.46,1.82,9.8,1.74,4.62-.11,9.4-1.48,14.63-4.17.23-.12.45-.07.55-.03.11.04.3.15.4.4,1.15,3.13,2.38,5.69,3.2,7.28.3.59.83,1.02,1.47,1.21.24.07.49.11.74.11.41,0,.82-.1,1.19-.3l7.49-4.01c1.17-.62,1.62-2.07,1.02-3.21-7.64-14.57-4.49-24.87-3.34-27.68,6.34-15.52,15.49-22.32,30.6-22.73,1.32-.04,2.39-1.13,2.39-2.43v-8.34c0-.65-.27-1.29-.75-1.74-.48-.46-1.09-.72-1.77-.68-20.61.51-34.68,10.66-43,31.03h0s-.01.03-.02.05c-4.28-1.7-8.03-2.69-11.16-2.95-10.9-.91-19.47,2.36-24.11,9.21-2.75,4.04-3.41,8.96-1.87,13.84,1.86,5.87,6.78,11.14,12.56,13.42Zm.55-19.97c1.92-2.83,6.08-3.46,9.39-3.46.86,0,1.66.04,2.35.1,2.13.18,5.45,1.21,9.33,2.92.23.1.39.35.39.62,0,.98.04,1.99.11,2.99.02.25-.1.49-.31.62-3.51,2.15-8.09,4.62-12.33,4.73h0c-1.47.04-3-.23-4.39-.78-2-.79-4.08-3.03-4.73-5.09-.5-1.59.02-2.36.22-2.64Z"/>
      </g>
    </g>
  </g>
</svg>